<svg xmlns="http://www.w3.org/2000/svg" viewBox="0 0 133.31 230.16"><defs><style>.cls-1{fill:#231956;}.cls-2{fill:#3b287f;}.cls-3{fill:#5d40ae;}.cls-4,.cls-5{fill:none;stroke-linecap:round;stroke-miterlimit:10;}.cls-4{stroke:#6f58bf;stroke-width:10px;}.cls-5{stroke:#fdfdff;stroke-width:5px;}</style></defs><g id="Calque_2" data-name="Calque 2"><g id="Calque_1-2" data-name="Calque 1"><path class="cls-1" d="M99,222.06A66,66,0,0,1,1.7,171.39C6.17,176.27,47.59,220.07,99,222.06Z"/><path class="cls-2" d="M133.31,164.16A66,66,0,0,1,99,222.06h0c-51.41-2-92.83-45.79-97.3-50.67a2.11,2.11,0,0,1,0-.25,64.46,64.46,0,0,1-.37-7,66,66,0,0,1,132,0Z"/><ellipse class="cls-1" cx="60.47" cy="105.66" rx="16" ry="7.5"/><rect class="cls-3" x="50.9" y="83.16" width="32.83" height="30" rx="13.56"/><ellipse class="cls-2" cx="67.47" cy="92.16" rx="13" ry="8"/><path class="cls-4" d="M67.47,89.16c2.37-12.06-.14-17.89-3-21-6.47-7-17.42-3-26-11-4.55-4.26-6.27-9.9-7-14"/><path class="cls-4" d="M103.47,121.16c3.7,2.75,19.21,15,22,36a50.93,50.93,0,0,1-2,22"/><path class="cls-4" d="M115.47,193.16c-1.33,2.67-1.67,3.33-3,6"/><path class="cls-2" d="M99,222.06h0c-51.41-2-92.83-45.79-97.3-50.67L1.31,171l.37.19Z"/><line class="cls-5" x1="18.35" y1="35.55" x2="9.5" y2="47.44"/><line class="cls-5" x1="49.99" y1="37.08" x2="36.92" y2="30.09"/><line class="cls-5" x1="16.4" y1="24.16" x2="2.5" y2="19.02"/><line class="cls-5" x1="48.08" y1="8.77" x2="36.82" y2="18.41"/><line class="cls-5" x1="24.61" y1="16.68" x2="20.29" y2="2.5"/></g></g></svg>