<!-- Generator: Adobe Illustrator 22.1.0, SVG Export Plug-In  -->
<svg version="1.1"
	 xmlns="http://www.w3.org/2000/svg"
	 x="0px" y="0px" width="309.6px" height="285px" viewBox="0 0 309.6 285"
	 xml:space="preserve">
<defs>
</defs>
<path d="M309.1,130.6c-8.3,161.5-149,154.6-154.2,154.3c-0.1,0-0.2,0-0.3,0c-5.1,0.3-145.8,7.2-154.2-154.3
	C-1.9,83.5,5,42.5,17.4,7.9c0.7-2,3.4-2.3,4.5-0.5l19.4,29.5c1,1.5,3.2,1.5,4.2,0L68.9,1.1c1-1.5,3.2-1.5,4.2,0l23.4,35.7
	c1,1.5,3.2,1.5,4.2,0l23.4-35.7c1-1.5,3.2-1.5,4.2,0l23.4,35.7c1,1.5,3.2,1.5,4.2,0l23.4-35.7c1-1.5,3.2-1.5,4.2,0l23.4,35.7
	c1,1.5,3.2,1.5,4.2,0l23.4-35.7c1-1.5,3.2-1.5,4.2,0L262.5,37c1,1.5,3.2,1.5,4.2,0.1l21-29.7c1.2-1.7,3.8-1.3,4.5,0.6
	C304.6,42.5,311.5,83.5,309.1,130.6z" fill="rgba(70, 32, 91, 1)"/>
</svg>