<svg xmlns="http://www.w3.org/2000/svg" viewBox="0 0 857.72 912.79"><defs><style>.cls-1{isolation:isolate;}.cls-2{mix-blend-mode:soft-light;}.cls-3{fill:#fff;}</style></defs><g class="cls-1"><g id="Calque_1" data-name="Calque 1"><g class="cls-2"><path class="cls-3" d="M928,853,772.3,594.44a276.23,276.23,0,0,0-59.79-225.67A170.39,170.39,0,0,0,892,262.92,156.41,156.41,0,1,1,672.74,40,170.69,170.69,0,0,0,584.1,281.82l-.1,0-84.86-140.9-84.86,140.9C302.67,317.73,221.66,422.53,221.66,546A277.79,277.79,0,0,0,226,594.44L70.28,853l60.43-.51L70.28,952.79l428.84-3.62L928,952.79,867.58,852.46Zm-10.64-6.07-53.4-.45L751.86,660.32a275.78,275.78,0,0,0,18.78-57ZM485.6,274.79q6.73-.33,13.54-.34t13.55.34L745.11,660.72c-43.33,92.49-137.26,156.73-246,156.73s-202.64-64.24-246-156.73ZM250.17,654.1a270.08,270.08,0,0,1-17.9-58.5l186-308.85a269.4,269.4,0,0,1,60-11.42ZM489.26,268.71l9.88-16.41L509,268.71c-3.29-.11-6.57-.25-9.89-.25S492.55,268.6,489.26,268.71ZM520,275.33a269.29,269.29,0,0,1,60,11.42L766,595.6a269,269,0,0,1-17.9,58.5ZM499.14,823.44c109.67,0,204.67-64,249.7-156.54l108.1,179.49-357.82-3-357.77,3L249.45,666.9C294.47,759.47,389.47,823.44,499.14,823.44ZM770.64,546a272.75,272.75,0,0,1-3,40.67L589.11,290.28a170.72,170.72,0,0,0,114.3,77.12A270.28,270.28,0,0,1,770.64,546ZM499.14,152.48l76.33,126.75A276,276,0,0,0,516.21,269L499.14,240.7,482.08,269a276.06,276.06,0,0,0-59.27,10.19ZM227.64,546c0-118.3,76.08-219.11,181.86-256.23L230.7,586.62A271.42,271.42,0,0,1,227.64,546ZM80.92,846.9,227.65,603.28a275.16,275.16,0,0,0,18.77,57L134.33,846.45Zm836.44,99.82-418.24-3.53-418.2,3.53,56.81-94.32,361.39-3,361.44,3Z" transform="translate(-70.28 -40)"/><polygon class="cls-3" points="385.63 557.34 352.8 502.82 319.97 557.34 352.8 557.06 385.63 557.34"/><polygon class="cls-3" points="537.75 557.34 504.92 502.82 472.08 557.34 504.92 557.06 537.75 557.34"/><polygon class="cls-3" points="471.87 516.24 429.25 445.49 386.64 516.24 429.25 515.88 471.87 516.24"/></g></g></g></svg>