<svg xmlns="http://www.w3.org/2000/svg" xmlns:xlink="http://www.w3.org/1999/xlink" viewBox="0 0 145.55 242"><defs><style>.cls-1{fill:#5d40ae;}.cls-2{fill:#322d47;}.cls-3{fill:url(#Dégradé_sans_nom_11);}.cls-4{fill:#262338;}.cls-5{fill:#767391;}.cls-6{fill:url(#Dégradé_sans_nom_15);}.cls-7{fill:url(#Dégradé_sans_nom_15-2);}.cls-8{fill:url(#Dégradé_sans_nom_15-3);}.cls-9{font-size:4px;fill:#7764bf;font-family:Bronova-Bold, Bronova;font-weight:700;}.cls-10{fill:none;stroke:#7764bf;stroke-linecap:round;stroke-miterlimit:10;stroke-width:4px;opacity:0.5;}.cls-11{fill:#343249;}.cls-12{fill:#3c3a51;}</style><linearGradient id="Dégradé_sans_nom_11" x1="86.9" y1="89.92" x2="82.53" y2="76.62" gradientUnits="userSpaceOnUse"><stop offset="0" stop-color="#322d47"/><stop offset="0" stop-color="#302c45"/><stop offset="1"/></linearGradient><linearGradient id="Dégradé_sans_nom_15" x1="10.63" y1="-39.46" x2="103.98" y2="50.02" gradientTransform="matrix(1, 0, 0, -1, 0, 80.07)" gradientUnits="userSpaceOnUse"><stop offset="0" stop-color="#fff"/><stop offset="0.23" stop-color="#fff"/><stop offset="0.41" stop-color="#c6c6c6"/><stop offset="0.59" stop-color="#ebebeb"/><stop offset="0.77" stop-color="#fff"/><stop offset="1" stop-color="#dcdcdc"/></linearGradient><linearGradient id="Dégradé_sans_nom_15-2" x1="16.35" y1="-45.44" x2="109.71" y2="44.05" xlink:href="#Dégradé_sans_nom_15"/><linearGradient id="Dégradé_sans_nom_15-3" x1="12.16" y1="-41.07" x2="105.52" y2="48.42" xlink:href="#Dégradé_sans_nom_15"/></defs><g id="Calque_2" data-name="Calque 2"><g id="Calque_1-2" data-name="Calque 1"><path class="cls-1" d="M48.27,101H70a18.33,18.33,0,0,1,.07,2.23v.11C69.27,116,69.09,146.12,50.27,167c-19.38,21.5-21.78,53.64-23.16,60.46v.07c-.85,6.47-4.13,12.92-10.75,14.2A13.51,13.51,0,0,1,.15,228.5,35.7,35.7,0,0,1,.27,221c2.25-12,10.62-42.64,29.38-62.5,14.83-15.7,18.62-49.78,18.62-57.5"/><path class="cls-1" d="M97.28,100.88H75.59a18.33,18.33,0,0,0-.07,2.23v.11c.75,12.66.93,42.78,19.75,63.66,19.38,21.5,21.78,53.64,23.16,60.46v.07c.85,6.47,4.13,12.92,10.75,14.2a13.51,13.51,0,0,0,16.22-13.23,35.7,35.7,0,0,0-.12-7.5c-2.25-12-10.62-42.64-29.38-62.5-14.83-15.7-18.62-49.78-18.62-57.5"/><rect class="cls-2" x="52.27" y="75" width="14" height="26"/><rect class="cls-3" x="79.27" y="75" width="14" height="26"/><path class="cls-4" d="M69.77,0V63h-17V30c0-1.19.06-2.4.17-3.61A44.26,44.26,0,0,1,57.75,9.75C60.83,4,65.07,0,69.77,0Z"/><path class="cls-4" d="M92.77,30V63h-17V0c4.7,0,8.94,4,12,9.75a40.8,40.8,0,0,1,3.12,7.73,45.88,45.88,0,0,1,1.61,8.08c.08.72.14,1.45.19,2.17S92.77,29.25,92.77,30Z"/><circle class="cls-2" cx="72.78" cy="64.5" r="23.5"/><circle class="cls-5" cx="72.77" cy="64" r="16"/><path class="cls-6" d="M61.48,67.07h0c.39,1.25,1,1.54,1.22,2.11.14.33.57.91,1.09.88a1.19,1.19,0,0,1,.71.19c-.08-.21-.15-.42-.22-.64,0,0,0,0,0,0h0s-.07-.85-.19-1.85c.08.3.15.6.23.91A8.08,8.08,0,0,0,68.14,74l.47.31A.28.28,0,0,0,68.9,74v0l-.85-6.53a.3.3,0,0,0-.22-.25,3.19,3.19,0,0,1-1.61-.85l.07-.34a1.85,1.85,0,0,1-.07-1.31h0a1.21,1.21,0,0,1-.73-.56h.36a2.83,2.83,0,0,1,.4-.37l.42-1.34a25.17,25.17,0,0,1-.84-3.83,1.11,1.11,0,0,0-2.12-.3,7.61,7.61,0,0,0-.35,1.05,10.45,10.45,0,0,0,0,4.66,1.46,1.46,0,0,0-.8-.55c-1-.22-1.66,1.11-1.26,3A5.38,5.38,0,0,0,61.48,67.07Z"/><path class="cls-7" d="M79.14,64.14h.36a1.21,1.21,0,0,1-.73.56h0A1.85,1.85,0,0,1,78.7,66l.07.33a3.13,3.13,0,0,1-1.61.86.28.28,0,0,0-.22.24L76.09,74a.28.28,0,0,0,.24.32h0l.46-.31a8.05,8.05,0,0,0,3.81-5.34l.15-.63c-.09.87-.16,1.57-.16,1.57h0l0,0c-.07.23-.14.44-.22.64a1.2,1.2,0,0,1,.76-.21c.51,0,1-.55,1.09-.89.24-.56.83-.85,1.22-2.1h0c0-.17.1-.37.15-.59.39-1.92-.25-3.25-1.27-3a1.43,1.43,0,0,0-.79.55,10.74,10.74,0,0,0,0-4.66,6.51,6.51,0,0,0-.36-1.05,1.11,1.11,0,0,0-2.11.3,24.91,24.91,0,0,1-.84,3.83c.13.45.28.9.42,1.35A2.79,2.79,0,0,1,79.14,64.14Z"/><path class="cls-8" d="M68.46,63a2.86,2.86,0,0,1,1.78,1.87c0,.07,0,.13,0,.17h0v0h0a3.19,3.19,0,0,1,0,1.11v0a2.88,2.88,0,0,1-.08.72c-.06.16-.78.22-1,.24h0l-.23,0,1,7.82v0a.25.25,0,0,0,.15.19,5.14,5.14,0,0,0,1.75.53l.39,0h.15a.48.48,0,0,1,.12,0h0l.49,0a5.12,5.12,0,0,0,1.65-.52.26.26,0,0,0,.15-.2s0,0,0,0l1-7.82-.24,0h0c-.2,0-.92-.08-1-.24a3.46,3.46,0,0,1-.08-.72v0a3.44,3.44,0,0,1,.06-1.11h0v0h0s0-.1,0-.17.08-.25.13-.37A2.4,2.4,0,0,1,76.54,63l.29,0c.65-1.89,1.89-6.67.74-8.62l-.26-.43.16-.09-.18-.13h0a9.44,9.44,0,0,0-4.64-1.41h-.31a9.4,9.4,0,0,0-4.63,1.41h0l-.19.13.16.09-.25.43c-1.15,2,.09,6.73.73,8.62Z"/><text class="cls-9" transform="matrix(0.1, -0.99, 0.99, 0.1, 23.96, 228.6)">M</text><text class="cls-9" transform="translate(24.34 224.92) rotate(-82.77)">e</text><text class="cls-9" transform="translate(24.66 222.42) rotate(-81.89)">t</text><text class="cls-9" transform="matrix(0.16, -0.99, 0.99, 0.16, 24.9, 220.77)">a</text><text class="cls-9" transform="translate(25.32 218.15) rotate(-80.17)"> </text><text class="cls-9" transform="translate(25.52 216.97) rotate(-79.43)">L</text><text class="cls-9" transform="translate(25.94 214.69) rotate(-78.41)">e</text><text class="cls-9" transform="translate(26.45 212.23) rotate(-77.34)">g</text><text class="cls-9" transform="translate(27.01 209.72) rotate(-76.27)">e</text><text class="cls-9" transform="translate(27.61 207.28) rotate(-75.19)">n</text><text class="cls-9" transform="translate(28.27 204.76) rotate(-74.08)">d</text><text class="cls-9" transform="translate(29.01 202.18) rotate(-73.06)">s</text><text class="cls-9" transform="translate(29.64 200.11) rotate(-72.35)"> </text><text class="cls-9" transform="translate(30 198.97) rotate(-71.57)">c</text><text class="cls-9" transform="translate(30.79 196.6) rotate(-70.52)">e</text><text class="cls-9" transform="translate(31.64 194.22) rotate(-69.64)">r</text><text class="cls-9" transform="translate(32.2 192.71) rotate(-68.96)">t</text><text class="cls-9" transform="translate(32.79 191.16) rotate(-68.35)">i</text><text class="cls-9" transform="translate(33.25 190.01) rotate(-67.76)">f</text><text class="cls-9" transform="matrix(0.39, -0.92, 0.92, 0.39, 33.85, 188.54)">i</text><text class="cls-9" transform="translate(34.33 187.41) rotate(-66.37)">e</text><text class="cls-9" transform="translate(35.33 185.11) rotate(-65.28)">d</text><path class="cls-10" d="M141.77,227c.59-11.11-5-25-7-29"/><line class="cls-10" x1="130.02" y1="187.86" x2="131.53" y2="191.14"/><path class="cls-11" d="M92.52,25.56,75.77,33.39V24.56l15.14-7.08A45.88,45.88,0,0,1,92.52,25.56Z"/><path class="cls-12" d="M92.77,30v1.33l-17,7.56V35.26l16.94-7.53C92.75,28.49,92.77,29.25,92.77,30Z"/><path class="cls-12" d="M69.77,31.84v1.07L52.77,39V36.09L69.71,30C69.75,30.62,69.77,31.23,69.77,31.84Z"/><polygon class="cls-11" points="69.77 21 69.77 28.72 52.77 34.53 52.77 26.82 52.94 26.76 69.77 21"/></g></g></svg>