<svg xmlns="http://www.w3.org/2000/svg" viewBox="0 0 144 191.53"><defs><style>.cls-1{fill:#3b287f;}.cls-2{fill:#1f154c;}.cls-3{fill:#b9b6c6;}.cls-4{fill:#fff;}.cls-5{fill:#5d40ae;}.cls-6{fill:#6f58bf;}</style></defs><g id="Calque_2" data-name="Calque 2"><g id="Calque_1-2" data-name="Calque 1"><path class="cls-1" d="M34,150l105.51,24.94a3.65,3.65,0,0,0,4.49-3.55V28.89a3.64,3.64,0,0,0-2.81-3.55L34,0Z"/><polygon class="cls-2" points="0 17.03 34 0 34 110.03 0 110.03 0 17.03"/><polygon class="cls-3" points="110 43.03 134.95 33.03 134.95 173.86 110 185.81 110 43.03"/><polygon class="cls-4" points="16.12 20.84 39 9.03 134.95 33.03 110 43.03 16.12 20.84"/><path class="cls-5" d="M106.79,191.38,0,167V17L109.41,42A5.89,5.89,0,0,1,114,47.73v137.9A5.89,5.89,0,0,1,106.79,191.38Z"/><polygon class="cls-6" points="93 99.03 17 82.03 17 42.03 93 59.03 93 99.03"/></g></g></svg>