<?xml version="1.0" encoding="utf-8"?>
<!-- Generator: Adobe Illustrator 24.3.0, SVG Export Plug-In . SVG Version: 6.00 Build 0)  -->
<svg version="1.1" id="Calque_1" xmlns="http://www.w3.org/2000/svg" xmlns:xlink="http://www.w3.org/1999/xlink" x="0px" y="0px"
	 viewBox="0 0 167.2 167.2" style="enable-background:new 0 0 167.2 167.2;" xml:space="preserve">
<style type="text/css">
	.st0{fill:#FFFFFF;}
</style>
<path class="st0" d="M121.7,9.2V9l-0.2,0.1C80.5-11.8,30.1,4.5,9.2,45.6C3.2,57.2,0.1,69.9,0,83l0,0c0,0,0,0.1,0,0.1
	c0,0.1,0,0.3,0,0.4c0,0,0,0.1,0,0.1c0,0,0,0.1,0,0.1c0,0.1,0,0.1,0,0.1c0,46.2,37.5,83.6,83.7,83.5s83.6-37.5,83.5-83.7
	c0-0.1,0-0.3,0-0.4C167,52,149.5,23.4,121.7,9.2z M166.2,82.6l-29.3-17.8l0.1,0l-15.6-26l0.3-28.5C148.7,24.4,165.8,52.2,166.2,82.6
	z M79.9,166.1c-0.2,0-0.5,0-0.7,0c-1.3-0.1-2.5-0.2-3.7-0.3c-0.2,0-0.4,0-0.6-0.1c-1.2-0.1-2.3-0.3-3.4-0.4
	c-0.4-0.1-0.8-0.1-1.3-0.2c-0.6-0.1-1.3-0.2-1.9-0.3c-1.2-0.2-2.4-0.5-3.6-0.8c-0.1,0-0.2,0-0.2-0.1c-6.2-1.5-12.3-3.7-18.1-6.7
	L74.6,140l8.8-5.4l37.3,22.7c-10,5-21,8-32.1,8.7c-0.1,0-0.2,0-0.4,0c-0.7,0-1.3,0.1-2,0.1c-0.3,0-0.5,0-0.8,0c-0.6,0-1.2,0-1.7,0
	c-0.1,0-0.2,0-0.3,0C82.2,166.2,81.1,166.2,79.9,166.1z M120.6,155.9l-36-21.9l35.6-21.6L120.6,155.9z M83.7,133.4L46.9,111
	l0.2-27.5l0,0l0,0l-0.2-18.8l15.3,0.2l-8.1-13.4l11.4-6.9l18-0.1l18.3,0.1l11,6.7l-8.2,13.6l15.5-0.2L120,83.4l0.2,27.9L83.7,133.4z
	 M120.4,38.8l-7,11.7l-9.8-6l1.1,0L94.1,27.1L120.6,11L120.4,38.8z M63.4,44.5l-9.8,6l-6.8-11.4l-0.2-28.3L73.2,27L62.7,44.5
	L63.4,44.5z M82.6,134.1l-36.1,22l0.4-43.7L82.6,134.1z M32.2,64.8L46,64.6l0,0l0.2,18.9l-0.2,27L1.6,83.4L32.2,64.8z M121.3,110.6
	l-0.2-27.2l0.1-18.8l13.9,0.2l30.8,18.6L121.3,110.6z M86,1c0.7,0,1.5,0.1,2.2,0.1c0.1,0,0.2,0,0.2,0c0.7,0,1.3,0.1,2,0.1
	c0.2,0,0.4,0,0.6,0.1c0.5,0,1.1,0.1,1.6,0.2c0.1,0,0.1,0,0.2,0c9.6,1.1,19,3.9,27.6,8.2l-27,16.4L83.6,9.7l-10,16.6L46.6,9.9
	C57.7,4.2,70.3,1,83.6,1C84.4,1,85.2,1,86,1z M45.6,10.3l0.2,27.8l-16,26.6l0.3,0L1,82.5C1.5,51,19.5,23.9,45.6,10.3z M11.2,123.3
	c-0.6-1.1-1.2-2.2-1.8-3.4c0,0,0,0,0,0c-0.5-1.1-1.1-2.2-1.6-3.4c-0.1-0.2-0.2-0.4-0.3-0.6c-0.4-0.9-0.8-1.9-1.2-2.9
	c-0.1-0.2-0.2-0.4-0.3-0.7c-0.4-1.1-0.8-2.2-1.2-3.4c-0.1-0.2-0.1-0.5-0.2-0.7c-0.3-1-0.6-1.9-0.9-2.9c-0.1-0.3-0.1-0.5-0.2-0.8
	c-0.3-1.2-0.6-2.4-0.9-3.6c0-0.1,0-0.2-0.1-0.3c-0.2-1.1-0.5-2.3-0.6-3.4c0-0.2-0.1-0.4-0.1-0.7c-0.4-2.5-0.7-5-0.9-7.6
	c0-0.2,0-0.5,0-0.7C1.1,87,1,85.8,1,84.5l45,27.4L45.7,157c-14.5-7.5-26.5-19.2-34.4-33.4C11.3,123.5,11.2,123.4,11.2,123.3z
	 M121.3,111.6l44.9-27.3c-0.3,30.6-17.4,58.5-44.5,72.6L121.3,111.6z"/>
</svg>
