<?xml version="1.0" encoding="utf-8"?>
<!-- Generator: Adobe Illustrator 24.3.0, SVG Export Plug-In . SVG Version: 6.00 Build 0)  -->
<svg version="1.1" id="Calque_1" xmlns="http://www.w3.org/2000/svg" xmlns:xlink="http://www.w3.org/1999/xlink" x="0px" y="0px"
	 viewBox="0 0 154.3 133.7" style="enable-background:new 0 0 154.3 133.7;" xml:space="preserve">
<style type="text/css">
	.st0{fill:#FFFFFF;}
</style>
<path class="st0" d="M121.8,22.8c-9.4,0.9-10.1,1.9-10.7,16.9c0,0,0,0.1,0,0.1c0,0-0.1,0-0.1,0c0,0,0,0,0,0
	c-0.6-15-1.3-16-10.7-16.9c0,0,0,0,0-0.1c0,0,0,0,0,0c9.4-0.9,10.1-1.9,10.7-16.9c0,0,0-0.1,0-0.1c0,0,0.1,0,0.1,0c0,0,0,0,0,0
	c0.6,15,1.3,16,10.7,16.9C121.8,22.7,121.8,22.7,121.8,22.8C121.8,22.8,121.8,22.8,121.8,22.8z"/>
<path class="st0" d="M127.9,9.7c-5.3,0.5-5.8,1.1-6.1,9.6c0,0,0,0-0.1,0c-0.3-8.5-0.7-9.1-6.1-9.6l0,0c5.3-0.5,5.8-1.1,6.1-9.6h0.1
	C122.2,8.6,122.6,9.2,127.9,9.7C127.9,9.6,127.9,9.7,127.9,9.7z"/>
<path class="st0" d="M104.4,10c-3.3,0.3-3.5,0.6-3.7,5.9l0,0c-0.2-5.2-0.4-5.6-3.7-5.9l0,0c3.3-0.3,3.5-0.7,3.7-5.9l0,0
	C100.9,9.3,101.2,9.7,104.4,10C104.4,9.9,104.4,10,104.4,10z"/>
<path class="st0" d="M55.7,22.8c-9.4,0.9-10.1,1.9-10.7,16.9c0,0,0,0.1,0,0.1c0,0-0.1,0-0.1,0c0,0,0,0,0,0c-0.5-15-1.3-16-10.7-16.9
	c0,0,0,0,0-0.1c0,0,0,0,0,0c9.4-0.9,10.1-1.9,10.7-16.9c0,0,0-0.1,0-0.1c0,0,0.1,0,0.1,0c0,0,0,0,0,0c0.5,15,1.3,16,10.7,16.9
	C55.8,22.7,55.8,22.7,55.7,22.8C55.8,22.8,55.8,22.8,55.7,22.8z"/>
<path class="st0" d="M61.9,9.7c-5.3,0.5-5.8,1.1-6.1,9.6h0c-0.3-8.5-0.7-9.1-6.1-9.6l0,0C55,9.1,55.4,8.6,55.8,0h0
	C56.1,8.5,56.5,9.1,61.9,9.7C61.9,9.6,61.9,9.7,61.9,9.7z"/>
<path class="st0" d="M38.4,10c-3.3,0.3-3.5,0.6-3.7,5.9l0,0c-0.2-5.2-0.4-5.6-3.7-5.9l0,0c3.3-0.3,3.5-0.7,3.7-5.9l0,0
	C34.9,9.3,35.1,9.7,38.4,10C38.4,9.9,38.4,10,38.4,10z"/>
<path class="st0" d="M124.4,133.7L77,133.3l-47.4,0.4L77,55L124.4,133.7z M77,132.2l45.5,0.4L77,57.2l-45.4,75.5L77,132.2z"/>
<path class="st0" d="M0,4.4l11.9,0.1L12,4.7l65.1,108.1L142.4,4.5l11.9-0.1L77.1,132.4l-0.4-0.6L0,4.4z M77.1,130.8L152.8,5.2
	l-9.9,0.1L77.1,114.4l-0.4-0.6L11.4,5.3L1.5,5.2L77.1,130.8z"/>
<polygon class="st0" points="77.1,22.8 142.6,131.5 153.5,131.6 77.1,4.8 0.8,131.6 11.7,131.5 "/>
</svg>
