<svg xmlns="http://www.w3.org/2000/svg" viewBox="0 0 67 104.56"><defs><style>.cls-1{fill:#5d40ae;}</style></defs><g id="Calque_2" data-name="Calque 2"><g id="Calque_1-2" data-name="Calque 1"><path class="cls-1" d="M0,44.56H67a0,0,0,0,1,0,0V97.76a6.79,6.79,0,0,1-6.79,6.79H6.79A6.79,6.79,0,0,1,0,97.76V44.56A0,0,0,0,1,0,44.56Z"/><path class="cls-1" d="M33.5,10A23.52,23.52,0,0,1,57,33.5V50H10V33.5A23.52,23.52,0,0,1,33.5,10m0-10h0A33.5,33.5,0,0,0,0,33.5V60H67V33.5A33.5,33.5,0,0,0,33.5,0Z"/><circle cx="33.5" cy="68.06" r="8.39"/><path d="M33.5,89.44h7.08c1.53,0,2.49-1.92,1.72-3.47l-3.54-7.13L33.5,68.23,28.24,78.84,24.7,86c-.77,1.55.19,3.47,1.72,3.47Z"/></g></g></svg>