<svg id="OBJECTS" xmlns="http://www.w3.org/2000/svg" xmlns:xlink="http://www.w3.org/1999/xlink" viewBox="0 0 499 380.95"><defs><style>.cls-1{fill:url(#linear-gradient);}.cls-2{fill:url(#linear-gradient-2);}.cls-3{fill:url(#linear-gradient-3);}.cls-4{fill:url(#linear-gradient-4);}.cls-5{fill:url(#linear-gradient-5);}.cls-6{fill:url(#linear-gradient-6);}.cls-7{fill:url(#linear-gradient-7);}.cls-8{fill:url(#linear-gradient-8);}.cls-9{fill:url(#linear-gradient-9);}.cls-10{fill:url(#linear-gradient-10);}.cls-11{fill:url(#linear-gradient-11);}.cls-12{fill:url(#linear-gradient-12);}.cls-13{fill:url(#linear-gradient-13);}.cls-14{fill:url(#linear-gradient-14);}.cls-15{fill:url(#linear-gradient-15);}.cls-16{fill:url(#linear-gradient-16);}.cls-17{fill:url(#linear-gradient-17);}.cls-18{fill:url(#linear-gradient-18);}.cls-19{fill:url(#linear-gradient-19);}.cls-20{fill:url(#linear-gradient-20);}.cls-21{fill:url(#linear-gradient-21);}.cls-22{fill:url(#linear-gradient-22);}.cls-23{fill:url(#linear-gradient-23);}.cls-24{fill:url(#linear-gradient-24);}.cls-25{fill:url(#linear-gradient-25);}</style><linearGradient id="linear-gradient" x1="-243.68" y1="571.99" x2="526.79" y2="-166.53" gradientUnits="userSpaceOnUse"><stop offset="0" stop-color="#fff"/><stop offset="0.23" stop-color="#fff"/><stop offset="0.41" stop-color="#c3c3c3"/><stop offset="0.59" stop-color="#e9e9e9"/><stop offset="0.77" stop-color="#fff"/><stop offset="1" stop-color="#dadada"/></linearGradient><linearGradient id="linear-gradient-2" x1="75.84" y1="265.74" x2="389.52" y2="-34.93" xlink:href="#linear-gradient"/><linearGradient id="linear-gradient-3" x1="-243.69" y1="571.98" x2="115.94" y2="227.26" xlink:href="#linear-gradient"/><linearGradient id="linear-gradient-4" x1="118.4" y1="261.65" x2="423.66" y2="-30.95" xlink:href="#linear-gradient"/><linearGradient id="linear-gradient-5" x1="-217.61" y1="599.19" x2="552.86" y2="-139.33" xlink:href="#linear-gradient"/><linearGradient id="linear-gradient-6" x1="150.87" y1="230.59" x2="391.21" y2="0.21" xlink:href="#linear-gradient"/><linearGradient id="linear-gradient-7" x1="-260.12" y1="554.83" x2="510.34" y2="-183.69" xlink:href="#linear-gradient"/><linearGradient id="linear-gradient-8" x1="-218.93" y1="597.81" x2="551.53" y2="-140.71" xlink:href="#linear-gradient"/><linearGradient id="linear-gradient-9" x1="143.05" y1="235.45" x2="393.52" y2="-4.64" xlink:href="#linear-gradient"/><linearGradient id="linear-gradient-10" x1="108.7" y1="268.3" x2="427.84" y2="-37.6" xlink:href="#linear-gradient"/><linearGradient id="linear-gradient-11" x1="-245.01" y1="570.6" x2="99.64" y2="240.23" xlink:href="#linear-gradient"/><linearGradient id="linear-gradient-12" x1="-245" y1="570.61" x2="525.47" y2="-167.91" xlink:href="#linear-gradient"/><linearGradient id="linear-gradient-13" x1="80.48" y1="258.65" x2="379.37" y2="-27.85" xlink:href="#linear-gradient"/><linearGradient id="linear-gradient-14" x1="-212.79" y1="604.21" x2="557.67" y2="-134.31" xlink:href="#linear-gradient"/><linearGradient id="linear-gradient-15" x1="-247.44" y1="568.07" x2="523.03" y2="-170.45" xlink:href="#linear-gradient"/><linearGradient id="linear-gradient-16" x1="-207.14" y1="611.16" x2="563.33" y2="-127.36" xlink:href="#linear-gradient"/><linearGradient id="linear-gradient-17" x1="-165.57" y1="654.52" x2="604.9" y2="-84" xlink:href="#linear-gradient"/><linearGradient id="linear-gradient-18" x1="-173.61" y1="646.13" x2="596.86" y2="-92.38" xlink:href="#linear-gradient"/><linearGradient id="linear-gradient-19" x1="-142.9" y1="678.18" x2="627.57" y2="-60.34" xlink:href="#linear-gradient"/><linearGradient id="linear-gradient-20" x1="-209.06" y1="609.15" x2="561.41" y2="-129.37" xlink:href="#linear-gradient"/><linearGradient id="linear-gradient-21" x1="-114.34" y1="707.96" x2="656.12" y2="-30.56" xlink:href="#linear-gradient"/><linearGradient id="linear-gradient-22" x1="-91.17" y1="732.14" x2="679.3" y2="-6.38" xlink:href="#linear-gradient"/><linearGradient id="linear-gradient-23" x1="-102.44" y1="719.34" x2="668.02" y2="-19.18" xlink:href="#linear-gradient"/><linearGradient id="linear-gradient-24" x1="-115.45" y1="706.81" x2="655.02" y2="-31.71" xlink:href="#linear-gradient"/><linearGradient id="linear-gradient-25" x1="-227.31" y1="590.11" x2="543.15" y2="-148.41" xlink:href="#linear-gradient"/></defs><path class="cls-1" d="M223.74,123.24h.09a14.94,14.94,0,0,0,1.74-.34C225,123.05,224.38,123.15,223.74,123.24Z" transform="translate(-1)"/><path class="cls-2" d="M232.7,115.42a.09.09,0,0,1,0,0v0Z" transform="translate(-1)"/><path class="cls-3" d="M232.71,115.32v0Z" transform="translate(-1)"/><path class="cls-4" d="M271.05,115.29v0Z" transform="translate(-1)"/><path class="cls-5" d="M279.92,123.25H280c-.63-.09-1.24-.19-1.82-.33A15.28,15.28,0,0,0,279.92,123.25Z" transform="translate(-1)"/><path class="cls-6" d="M271.06,115.42a.2.2,0,0,0,0-.07v0S271.06,115.4,271.06,115.42Z" transform="translate(-1)"/><path class="cls-7" d="M159.58,121.93l0,.07c3.21,10.29,8.08,12.71,10,17.35,1.17,2.78,4.74,7.5,9,7.33a10.09,10.09,0,0,1,5.85,1.5q-.95-2.49-1.76-5.23c.05-.07.11-.11.17-.19l0,0s-.65-7-1.59-15.27l1.85,7.5c4.56,18.51,11.26,29.9,31.43,44.05,1.32.92,2.59,1.78,3.83,2.59a2.35,2.35,0,0,0,2.36-2.66l-7-54a2.37,2.37,0,0,0-1.82-2,25.65,25.65,0,0,1-13.24-7l.56-2.79a15.3,15.3,0,0,1-.61-10.84h0a10,10,0,0,1-6-4.56h2.94A24.3,24.3,0,0,1,199,94.66l3.47-11.07a208.29,208.29,0,0,1-6.95-31.67C194.28,42.79,181.62,41,178,49.45a55.47,55.47,0,0,0-2.92,8.72c-3.41,14.09-2.14,25.89.23,38.44a12.09,12.09,0,0,0-6.54-4.55c-8.42-1.81-13.72,9.19-10.44,25C158.72,118.88,159.14,120.49,159.58,121.93Z" transform="translate(-1)"/><path class="cls-8" d="M277.26,123.24c-.64-.09-1.25-.19-1.83-.33a14.94,14.94,0,0,0,1.74.34Z" transform="translate(-1)"/><path class="cls-9" d="M268.3,115.35v0a.09.09,0,0,1,0,0Z" transform="translate(-1)"/><path class="cls-10" d="M268.29,115.29v0Z" transform="translate(-1)"/><path class="cls-11" d="M230,115.32v0Z" transform="translate(-1)"/><path class="cls-12" d="M221,123.24h.09a15.28,15.28,0,0,0,1.73-.34C222.23,123.05,221.62,123.15,221,123.24Z" transform="translate(-1)"/><path class="cls-13" d="M229.94,115.42s0,0,0,0v0A.2.2,0,0,0,229.94,115.42Z" transform="translate(-1)"/><path class="cls-14" d="M305.36,97.73h2.94a10,10,0,0,1-6,4.56h0a15.3,15.3,0,0,1-.61,10.84l.56,2.79A25.65,25.65,0,0,1,289,123a2.37,2.37,0,0,0-1.82,2l-7,54a2.35,2.35,0,0,0,2.13,2.64c1.23-.81,2.49-1.65,3.8-2.57C306.26,164.87,313,153.48,317.52,135l1.29-5.25c-.8,7.24-1.33,13-1.33,13l0,0c.12.16.24.27.36.41-.55,1.84-1.15,3.59-1.8,5.27a10,10,0,0,1,6.26-1.76c4.28.17,7.85-4.55,9-7.33,2-4.64,6.83-7.06,10-17.35l0-.07c.44-1.44.86-3.05,1.23-4.84,3.28-15.84-2-26.84-10.44-25a12.09,12.09,0,0,0-6.54,4.55c2.37-12.55,3.64-24.35.23-38.44A55.47,55.47,0,0,0,323,49.45c-3.6-8.47-16.26-6.66-17.45,2.47a208.29,208.29,0,0,1-6.95,31.67l3.47,11.07A24.3,24.3,0,0,1,305.36,97.73Z" transform="translate(-1)"/><path class="cls-15" d="M217.18,88.6c7.73,1.7,11.67,7.9,13.56,12.4a22,22,0,0,1,1.09,3c.17.59.29,1.06.37,1.39a.36.36,0,0,0,0,.1l.08.38,0,0s0,0,0,.07a27.39,27.39,0,0,1,.44,9.12c0,.17,0,.29,0,.29s-.05,4.34-.65,5.89c-.51,1.34-6.5,1.87-8.17,2h0s-.74.14-2,.25l8.38,64.57a1.83,1.83,0,0,0,.06.25,2.38,2.38,0,0,0,1.23,1.57,42.74,42.74,0,0,0,14.46,4.34c1,.13,2.07.24,3.18.32v.14h.23c.36,0,.68,0,1-.06s.67,0,1,.06h.23v-.14c1.41-.1,2.73-.25,4-.43a42.67,42.67,0,0,0,13.64-4.23,2.38,2.38,0,0,0,1.26-1.71l0-.11,8.38-64.57c-1.22-.11-2-.25-2-.25h0c-1.67-.13-7.66-.66-8.17-2-.6-1.55-.65-5.89-.65-5.89s0-.12,0-.29a27.39,27.39,0,0,1,.44-9.12s0,0,0-.07l0,0,.08-.38a.36.36,0,0,0,0-.1c.08-.33.2-.8.37-1.39a22,22,0,0,1,1.09-3c1.89-4.5,5.83-10.7,13.56-12.4a16.55,16.55,0,0,1,2.43-.35c5.31-15.62,15.58-55,6.08-71.14l-2.1-3.57,1.33-.78c-.52-.34-1-.69-1.56-1h0a0,0,0,0,1,0,0A77.13,77.13,0,0,0,251.76.1V0c-.43,0-.84,0-1.26.05s-.83,0-1.26,0V.1A77.13,77.13,0,0,0,211,11.72a0,0,0,0,1,0,0h0c-.53.33-1,.68-1.56,1l1.33.78-2.1,3.57c-9.5,16.1.77,55.52,6.08,71.14A16.55,16.55,0,0,1,217.18,88.6Z" transform="translate(-1)"/><polygon class="cls-16" points="143.35 259.05 149.78 265.49 159.16 274.87 161.01 273.02 163.56 270.48 164.32 269.71 167.17 266.86 174.56 259.47 174.56 294.95 188.5 294.95 188.5 225.54 185.45 228.87 159.16 255.16 146.13 242.13 132.88 228.87 132.75 228.87 129.41 225.54 129.41 228.87 129.41 245.12 129.41 294.95 143.35 294.95 143.35 259.05"/><polygon class="cls-17" points="248.18 266.93 248.18 252.99 209.34 252.99 195.4 252.9 195.4 281.02 195.4 283.63 195.4 294.95 267.58 294.95 267.58 281.02 209.34 281.02 209.34 266.93 248.18 266.93"/><polygon class="cls-18" points="289.44 243.28 312.49 243.28 312.49 229.35 254.02 229.35 254.02 229.34 195.4 229.34 195.4 231.95 195.4 243.28 253.39 243.28 253.39 243.28 275.5 243.28 275.5 243.29 289.44 243.29 289.44 243.28"/><rect class="cls-19" x="274" y="248.83" width="13.94" height="46.13"/><polygon class="cls-20" points="136.63 303.06 136.63 302.92 66.94 302.92 66.94 303.06 66.94 306.02 66.94 319.49 136.63 319.49 136.63 303.06"/><polygon class="cls-21" points="234.62 347.62 280.81 347.62 280.81 331.04 234.62 331.04 218.04 330.94 218.04 364.37 218.04 367.48 218.04 380.95 287.76 380.95 287.76 364.37 234.62 364.37 234.62 347.62"/><polygon class="cls-22" points="293.69 380.85 310.27 380.85 310.27 346.31 293.69 329.74 293.69 380.85"/><path class="cls-23" d="M475.94,333.63H453.53a7.09,7.09,0,1,1,0-14.17h25.94a6.36,6.36,0,0,1,4.3,6H500a22.55,22.55,0,0,0-19.89-22.42H450.7A23.77,23.77,0,0,0,433,314.81a23.5,23.5,0,0,0-2.15,5.09,38.86,38.86,0,0,0-29-16.84l-.2,0L357.92,303l-16.46,0v.15h-.11V344.9l-41.83-41.84H176a40.05,40.05,0,0,0-28,11.24A38.61,38.61,0,0,0,137.72,331H84.48l-16.57-.1v50h69.73V364.37H84.48V347.62h34.23l.07.15h17.78a38.3,38.3,0,0,0,11.42,22A40,40,0,0,0,176,381h34.12V347.77h0V331.19H155.37a23.52,23.52,0,0,1,17.17-11.55h37.4v-.15h82.55l18.78,18.77,11.34,11.35,19.65,19.64L354,381h4V319.52h41.74a23.24,23.24,0,0,1,3.45.43,22.38,22.38,0,0,1,9.1,4.12,22.48,22.48,0,0,1,9,18,23.45,23.45,0,0,1-.48,4.65,22.62,22.62,0,0,1-18.62,17.65H383.43V331.08H366.86V381h36.33l.19,0a39.15,39.15,0,0,0,33.95-33.11c.18-1.23.28-2.48.35-3.73a23.69,23.69,0,0,0,15.85,6.12h22.41a7.09,7.09,0,0,1,0,14.17H465.46a6.36,6.36,0,0,1-4.3-6H444.93A22.57,22.57,0,0,0,467.52,381h8.42a23.66,23.66,0,1,0,0-47.32ZM193.5,347.77v16.6h-21a23.31,23.31,0,0,1-19.29-16.6Z" transform="translate(-1)"/><polygon class="cls-24" points="340.46 294.95 356.92 294.95 356.92 278.49 356.92 217.07 356.92 213.1 341.26 228.77 321.61 248.41 310.27 259.76 293.69 276.32 293.69 278.53 293.69 286.21 293.7 293.65 293.7 294.95 298.52 294.95 340.35 253.12 340.35 294.95 340.46 294.95"/><polygon class="cls-25" points="16.57 303.96 0 303.96 0 380.95 62.1 380.95 62.1 364.37 16.57 364.37 16.57 303.96"/></svg>