<?xml version="1.0" encoding="utf-8"?>
<!-- Generator: Adobe Illustrator 24.3.0, SVG Export Plug-In . SVG Version: 6.00 Build 0)  -->
<svg version="1.1" id="Calque_1" xmlns="http://www.w3.org/2000/svg" xmlns:xlink="http://www.w3.org/1999/xlink" x="0px" y="0px"
	 viewBox="0 0 154.3 156.9" style="enable-background:new 0 0 154.3 156.9;" xml:space="preserve">
<style type="text/css">
	.st0{fill:#FFFFFF;}
</style>
<path class="st0" d="M114.1,156.9l-39.4-40.2l-40-39.6l106-26l-0.2,0.6L114.1,156.9z M36.3,77.5l39,38.6l38.4,39.2l25.9-103.2
	L36.3,77.5z"/>
<path class="st0" d="M90.7,112.9L0,52.2l51.2-23.5l50.8-24.4L101.8,5L90.7,112.9z M1.6,52.3l88.5,59.1L101,5.6L51.5,29.4L1.6,52.3z"
	/>
<path class="st0" d="M88.7,77.6L88.7,77.6L88.7,77.6L77.2,58.5L65.7,77.6l0,0l0,0l0,0l0,0l11.5,19.1L88.7,77.6L88.7,77.6L88.7,77.6z
	 M77.2,77.7l-8.1-0.1l8.1-0.1l8.1,0.1L77.2,77.7z"/>
<rect x="12.5" y="79.6" transform="matrix(0.7074 -0.7069 0.7069 0.7074 -35.5981 75.589)" class="st0" width="121.9" height="2.4"/>
<rect x="76.2" y="10.5" class="st0" width="2.4" height="132.8"/>
<rect x="60.7" y="17" transform="matrix(0.7088 -0.7054 0.7054 0.7088 -25.4714 61.614)" class="st0" width="2.4" height="89.3"/>
<rect x="35.8" y="75.8" transform="matrix(1 -1.570794e-03 1.570794e-03 1 -0.1209 0.141)" class="st0" width="108" height="2.4"/>
<rect x="12.5" y="79.6" transform="matrix(0.7074 -0.7069 0.7069 0.7074 -35.5981 75.589)" class="st0" width="121.9" height="2.4"/>
<rect x="76.2" y="10.5" class="st0" width="2.4" height="132.8"/>
<rect x="60.7" y="17" transform="matrix(0.7088 -0.7054 0.7054 0.7088 -25.4714 61.614)" class="st0" width="2.4" height="89.3"/>
<rect x="35.8" y="75.8" transform="matrix(1 -1.570794e-03 1.570794e-03 1 -0.1209 0.141)" class="st0" width="108" height="2.4"/>
<path class="st0" d="M27.4,32.5c-3.2,0-5.8-2.6-5.8-5.8c0-3.2,2.6-5.8,5.8-5.8c3.2,0,5.8,2.6,5.8,5.8c0,0,0,0,0,0
	C33.2,29.9,30.6,32.5,27.4,32.5z M27.4,23.2c-1.9,0-3.5,1.5-3.5,3.4c0,1.9,1.5,3.5,3.4,3.5s3.5-1.5,3.5-3.4c0,0,0,0,0,0
	C30.8,24.8,29.3,23.2,27.4,23.2z"/>
<path class="st0" d="M77.2,11.6c-3.2,0-5.8-2.6-5.8-5.8S74,0,77.2,0C80.4,0,83,2.6,83,5.8v0C83,9,80.4,11.6,77.2,11.6z M77.2,2.4
	c-1.9,0-3.5,1.5-3.5,3.5s1.5,3.5,3.5,3.5c1.9,0,3.5-1.5,3.5-3.5c0,0,0,0,0,0C80.6,3.9,79.1,2.4,77.2,2.4z"/>
<path class="st0" d="M119.5,40c-3.2,0-5.8-2.6-5.8-5.8s2.6-5.8,5.8-5.8c3.2,0,5.8,2.6,5.8,5.8c0,0,0,0,0,0
	C125.3,37.4,122.7,40,119.5,40z M119.5,30.7c-1.9,0-3.5,1.5-3.5,3.5s1.5,3.5,3.5,3.5c1.9,0,3.5-1.5,3.5-3.5c0,0,0,0,0,0
	C122.9,32.3,121.4,30.7,119.5,30.7L119.5,30.7z"/>
<path class="st0" d="M148.5,82.9c-3.2,0-5.8-2.6-5.8-5.8s2.6-5.8,5.8-5.8c3.2,0,5.8,2.6,5.8,5.8c0,0,0,0,0,0
	C154.3,80.3,151.7,82.9,148.5,82.9z M148.5,73.6c-1.9,0-3.5,1.5-3.5,3.4s1.5,3.5,3.4,3.5c1.9,0,3.5-1.5,3.5-3.4c0,0,0,0,0,0
	C151.9,75.2,150.4,73.6,148.5,73.6z"/>
<path class="st0" d="M96.9,102.6c-3.2,0-5.8-2.6-5.8-5.8s2.6-5.8,5.8-5.8c3.2,0,5.8,2.6,5.8,5.8l0,0
	C102.7,100,100.1,102.6,96.9,102.6z M96.9,93.3c-1.9,0-3.5,1.5-3.5,3.5s1.5,3.5,3.5,3.5s3.5-1.5,3.5-3.5l0,0
	C100.3,94.9,98.8,93.3,96.9,93.3z"/>
<path class="st0" d="M27.4,132.7c-3.2,0-5.8-2.6-5.8-5.8c0-3.2,2.6-5.8,5.8-5.8s5.8,2.6,5.8,5.8c0,0,0,0,0,0
	C33.2,130.1,30.6,132.7,27.4,132.7z M27.4,123.5c-1.9,0-3.5,1.5-3.5,3.4c0,1.9,1.5,3.5,3.4,3.5s3.5-1.5,3.5-3.4c0,0,0,0,0,0
	C30.8,125,29.3,123.5,27.4,123.5z"/>
<path class="st0" d="M77.2,153.6c-3.2,0-5.8-2.6-5.8-5.8s2.6-5.8,5.8-5.8s5.8,2.6,5.8,5.8c0,0,0,0,0,0C83,151,80.4,153.6,77.2,153.6
	z M77.2,144.3c-1.9,0-3.5,1.5-3.5,3.5c0,1.9,1.5,3.5,3.5,3.5s3.5-1.5,3.5-3.5S79.1,144.3,77.2,144.3
	C77.2,144.3,77.2,144.3,77.2,144.3z"/>
<path class="st0" d="M85.2,128.9c-28.3,0-51.2-22.9-51.2-51.2S57,26.5,85.2,26.5s51.2,22.9,51.2,51.2
	C136.4,106,113.5,128.9,85.2,128.9z M85.2,27.1c-27.9,0-50.6,22.6-50.6,50.6s22.6,50.6,50.6,50.6s50.6-22.6,50.6-50.6l0,0
	C135.8,49.8,113.2,27.2,85.2,27.1z"/>
</svg>
