<svg id="Calque_1" data-name="Calque 1" xmlns="http://www.w3.org/2000/svg" viewBox="0 0 86.09 85.02"><defs><style>.cls-1{fill:#fff;}</style></defs><path class="cls-1" d="M85.35,19.44a7.53,7.53,0,0,0-1.5-2.11,4.9,4.9,0,0,0-8.82-4,5,5,0,0,0-.29.5,40.22,40.22,0,0,0-7.46,0l-.8.07A35.89,35.89,0,0,0,35.11,5.49c-6.76-5-12.72-6.67-17-4.65C13.64,3,11.63,9.08,12.49,18L13.1,18c-.84-8.69,1.05-14.59,5.33-16.62C22.36-.53,28,1,34.36,5.66A35.86,35.86,0,0,0,6.72,40.56c0,.9,0,1.8.1,2.69a40.74,40.74,0,0,0-3.37,4.24,1.85,1.85,0,1,0-1.88,3.19c-1.75,3.57-2,6.74-.83,9.3C2.56,63.77,7.59,65.81,15,65.81c.67,0,1.35,0,2.05,0A35.85,35.85,0,0,0,69.16,64.6c.08.5.14,1,.2,1.48a35.63,35.63,0,0,1,.1,8.41,2,2,0,0,0-2.08.49,2,2,0,0,0,0,2.86,2.09,2.09,0,0,0,1.17.57,8.85,8.85,0,0,1-4.41,5.28c-4.2,2-10.35.09-17.33-5.38l-.4.43C51.7,82.88,56.56,85,60.53,85a8.9,8.9,0,0,0,3.89-.83,9.51,9.51,0,0,0,4.77-5.8,2.06,2.06,0,0,0,1-.55,2,2,0,0,0,0-2.86L70,74.79A34.92,34.92,0,0,0,70,66c-.08-.66-.18-1.33-.28-2a35.85,35.85,0,0,0-2.58-49.58l.22,0a40.64,40.64,0,0,1,7.16,0A5,5,0,0,0,74.36,17a4.86,4.86,0,0,0,2.14,3.07h0a4.82,4.82,0,0,0,2.64.78,4.68,4.68,0,0,0,1-.11,4.88,4.88,0,0,0,3.08-2.14,4.83,4.83,0,0,0,.32-.59,6.84,6.84,0,0,1,1.18,1.72c1.92,4-.25,9.75-6.11,16.19l.47.43C85.18,29.69,87.39,23.69,85.35,19.44ZM56.65,30.7a112.26,112.26,0,0,0-8.33-12.06c2.89-1,5.72-1.81,8.48-2.47h0l.73-.17h0l.18-.05C58.64,20,57.79,25.84,56.65,30.7ZM42.13,7.47v0c.15,0,.3,0,.44,0s.3,0,.44,0v0a26.22,26.22,0,0,1,13,3.95,6.1,6.1,0,0,1,.54.34l-.45.27.72,1.21a8.06,8.06,0,0,1,.82,2.05,95.44,95.44,0,0,0-9.75,2.8,79.1,79.1,0,0,0-9.77-10.2A25.37,25.37,0,0,1,42.13,7.47ZM28.32,13.23,29,12l-.44-.27a4.13,4.13,0,0,0,.54-.34A26.25,26.25,0,0,1,37.4,8.06a76.59,76.59,0,0,1,9.9,10.26l-19.55,8.9C26.81,22,26.49,16.33,28.32,13.23Zm-11.38,14a22.05,22.05,0,0,1,1-3,3.12,3.12,0,0,1,5.94.83c.18,1.35.4,2.68.67,4a96.48,96.48,0,0,0-8.28,5.62A25.21,25.21,0,0,1,16.94,27.24ZM1.32,59.71c-1.15-2.4-.84-5.42.86-8.83a1.1,1.1,0,0,0,.26,0A1.85,1.85,0,0,0,4.3,49.05a1.82,1.82,0,0,0-.38-1.12,40,40,0,0,1,3-3.81,35.74,35.74,0,0,0,9.58,21C8.51,65.41,3.14,63.5,1.32,59.71Zm31.15,8.74a.83.83,0,0,1-.84.79c-.42-.27-.86-.57-1.3-.89-6.87-4.8-9.15-8.68-10.69-15-.23-.85-.45-1.71-.64-2.55.32,2.82.54,5.2.54,5.2s0,.05-.05.08c.19.61.39,1.2.61,1.76a3.51,3.51,0,0,0-2-.51c-1.44,0-2.67-1.55-3.06-2.5-.66-1.57-2.31-2.41-3.41-5.92v0c-.15-.49-.3-1-.42-1.62-1.1-5.4.69-9.12,3.56-8.51A4,4,0,0,1,17,40.31a44.74,44.74,0,0,1-.69-4.82c2.57-2,5.37-3.88,8.36-5.72.43,2.06.95,4.1,1.55,6.1l-1.17,3.78a7.1,7.1,0,0,0-1.13,1.06h-1a3.38,3.38,0,0,0,2,1.54,5.14,5.14,0,0,0,.2,3.68l-.2,1a8.79,8.79,0,0,0,4.51,2.4.84.84,0,0,1,.62.69L32.47,68.3Zm16.9,3v0A.77.77,0,0,1,49,72a14.5,14.5,0,0,1-4.64,1.45,12.36,12.36,0,0,1-1.35.15v.05h-.07c-.12,0-.22,0-.34,0s-.22,0-.35,0h-.07v-.05c-.37,0-.74,0-1.08-.1a14.71,14.71,0,0,1-4.93-1.47.83.83,0,0,1-.42-.54s0,0,0-.08L32.83,49.49c.42-.05.67-.1.67-.1.56,0,2.6-.22,2.77-.69a10.05,10.05,0,0,0,.22-2v-.1a9.55,9.55,0,0,0-.15-3.11v0a.56.56,0,0,0,0-.12v0c0-.1-.08-.27-.13-.46a7.87,7.87,0,0,0-.36-1,6.76,6.76,0,0,0-4.62-4.22,4.77,4.77,0,0,0-.83-.13,72.77,72.77,0,0,1-2.5-9.56l19.85-9a110.35,110.35,0,0,1,8.72,12.68c-.58,2.37-1.21,4.47-1.71,5.94a7.21,7.21,0,0,0-.83.12,6.76,6.76,0,0,0-4.62,4.22,7.39,7.39,0,0,0-.36,1c0,.2-.1.34-.13.47v0a.56.56,0,0,0,0,.12v0a9.58,9.58,0,0,0-.15,3.11v.1a10.05,10.05,0,0,0,.22,2c.17.46,2.1.63,2.66.64l-.45-.1.46.1h0s.25,0,.66.1ZM67,57.29a3.27,3.27,0,0,0-2.13.59c.22-.57.41-1.15.61-1.79-.05-.05-.07-.1-.12-.15s.17-2,.44-4.41c-.15.58-.3,1.2-.44,1.79-1.55,6.3-3.83,10.18-10.7,15-.44.32-.88.62-1.3.89h0a.78.78,0,0,1-.69-.89L55.06,50a.74.74,0,0,1,.61-.69,8.87,8.87,0,0,0,4.52-2.41l-.2-1a5.19,5.19,0,0,0,.2-3.68,3.29,3.29,0,0,0,1.49-.86,95.76,95.76,0,0,1,5.93,15.85A1.88,1.88,0,0,1,67,57.29Zm.15-33a18.41,18.41,0,0,1,1,3,29.25,29.25,0,0,1-.07,13.08,4.2,4.2,0,0,1,2.23-1.55c2.87-.61,4.69,3.12,3.58,8.47-.12.61-.27,1.15-.41,1.64v0c-1.08,3.5-2.75,4.34-3.41,5.91A4.85,4.85,0,0,1,68.18,57,96.9,96.9,0,0,0,62.1,40.86a1.88,1.88,0,0,0,.12-.18H62c-.9-1.88-1.87-3.77-2.89-5.66a72.88,72.88,0,0,0,2.11-9.94A3.12,3.12,0,0,1,67.18,24.25Zm14.59-6.63a3.1,3.1,0,0,1-4.3.93h0a3.12,3.12,0,0,1-1.16-3.9c.07-.14.14-.27.22-.4l.13-.18a3.1,3.1,0,0,1,1.83-1.18,3.07,3.07,0,0,1,2.34.42,3.12,3.12,0,0,1,1.36,2,3.17,3.17,0,0,1,.07.81,3.3,3.3,0,0,1-.11.69A3.22,3.22,0,0,1,81.77,17.62Z" transform="translate(0 0)"/></svg>