<svg id="Calque_1" data-name="Calque 1" xmlns="http://www.w3.org/2000/svg" viewBox="0 0 127.66 79.65"><defs><style>.cls-1{fill:#fff;}</style></defs><path class="cls-1" d="M63.59,64l-3.32,1.83c.7,1.29,1.36,2.51,2.1,3.86h-.91A129.47,129.47,0,0,1,37,66.87c-7.52-1.6-14.84-3.81-21.59-7.59-1.69-.94-3.28-2.06-5-3.14L8.17,59A42.8,42.8,0,0,0,18.58,65.1c12.55,5.35,25.78,7.54,39.31,8.26l4.54.27-2.17,4,3.34,1.83c1.37-2.48,2.68-4.83,4-7.19a1,1,0,0,0,.13-.79C66.36,69,65,66.52,63.59,64Z" transform="translate(0 0.25)"/><path class="cls-1" d="M100.85,64.71,102,68a59.58,59.58,0,0,0,15.86-7.74l-1.94-2.72Z" transform="translate(0 0.25)"/><path class="cls-1" d="M86,68.06c.23,1.23.44,2.39.68,3.75l11.5-2.59-1-3.65Z" transform="translate(0 0.25)"/><path class="cls-1" d="M78.59,69c.17,1.34.32,2.54.47,3.78l3.79-.53c-.16-1.26-.31-2.4-.48-3.72Z" transform="translate(0 0.25)"/><path class="cls-1" d="M5.6,38.61a22.23,22.23,0,0,1,5.91-6.16c6-4.39,12.77-7,19.84-8.93,2.14-.6,4.32-1.08,6.6-1.64V18l-.17,0C29.71,19.72,21.85,22,14.58,26,9.46,28.8,4.85,32.18,1.88,37.4a14.92,14.92,0,0,0,2.66,18L7.28,53c-.44-.6-.84-1.12-1.23-1.66A11,11,0,0,1,5.6,38.61Z" transform="translate(0 0.25)"/><path class="cls-1" d="M126.81,39.78a22.47,22.47,0,0,0-7.73-9.87,56.48,56.48,0,0,0-18.42-9.07c-3.64-1.13-7.35-2-11.16-3,0-1.35,0-2.71,0-4.07a1.94,1.94,0,0,0-1-1.24Q77.91,6.33,67.25.21c-.31-.18-.66-.29-1-.46,0,.29-.09.44-.09.58V11.17a14.82,14.82,0,0,1,5,2h0l.29.19-.25.15.4.68c1.8,3.06-.15,10.54-1.16,13.5a2.71,2.71,0,0,0-.46.07,3.11,3.11,0,0,0-1.23.57,4.32,4.32,0,0,0-1.34,1.78,5,5,0,0,0-.21.58c0,.11-.05.2-.07.26v0l0,.08h0a5,5,0,0,0-.1,1.52,1.41,1.41,0,0,0,0,.21v.06a5.25,5.25,0,0,0,.12,1.12c.1.25,1.23.35,1.55.38h0l.37,0L67.47,46.6v0a.47.47,0,0,1-.24.32,8,8,0,0,1-2.59.81l-.76.08v0h0l-.2,0-.2,0h0v0l-.6-.06a8,8,0,0,1-2.75-.83.44.44,0,0,1-.23-.29s0,0,0,0L58.22,34.34l.37,0h0c.32,0,1.45-.13,1.55-.38a5.25,5.25,0,0,0,.12-1.12v-.06c0-.07,0-.14,0-.22A5.26,5.26,0,0,0,60.18,31h0a.73.73,0,0,1,0-.08v0c0-.06,0-.15-.07-.26a5,5,0,0,0-.21-.58,4.39,4.39,0,0,0-1.32-1.77,3.14,3.14,0,0,0-1.25-.58,2.71,2.71,0,0,0-.46-.07c-1-3-3-10.44-1.16-13.5l.4-.68-.25-.15.29-.19h0a14.77,14.77,0,0,1,5.36-2v-10c0-.41-.06-.82-.09-1.21-.16,0-.22-.06-.26,0q-11.25,6.47-22.48,13a1.42,1.42,0,0,0-.55,1c0,8.66,0,17.32,0,26.19.38-.17.56-.23.72-.32l8-4.6a7.08,7.08,0,0,1-.4-1v0c-.08-.27-.16-.58-.23-.92-.62-3,.38-5.09,2-4.75a2.29,2.29,0,0,1,1.24.87,16.32,16.32,0,0,1,0-7.3,10.64,10.64,0,0,1,.55-1.65,1.74,1.74,0,0,1,3.31.47,40.64,40.64,0,0,0,1.32,6c-.21.69-.44,1.4-.65,2.1a4,4,0,0,0-.63.58h-.56a1.91,1.91,0,0,0,1.14.87h0a3.26,3.26,0,0,0-.13.79,2.77,2.77,0,0,0,.25,1.27l-.11.53a4.82,4.82,0,0,0,2.51,1.34.44.44,0,0,1,.34.35v0L58,44.87a.44.44,0,0,1-.45.5l-.73-.49c-3.36-2.36-4.75-4.32-5.63-7.15-.11-.39-.23-.79-.33-1.21s-.23-1-.35-1.42c.16,1.41.28,2.64.3,2.86l-1.24.71-7.7,4.45L40.43,44c7.67,4.43,15.19,8.79,22.74,13.1A1.71,1.71,0,0,0,64.6,57c1.7-.9,3.34-1.89,5-2.84L87.12,44c-.24-.18-.38-.31-.55-.41l-8.78-5-1.42-.8c0-.36.12-1.25.24-2.31-.09.33-.17.67-.25,1s-.2.76-.31,1.13c-.87,2.87-2.25,4.84-5.65,7.23l-.73.49a.44.44,0,0,1-.4-.5L70.6,34.62s0,0,0,0a.43.43,0,0,1,.33-.33,4.82,4.82,0,0,0,2.51-1.34l-.11-.53a2.71,2.71,0,0,0,.25-1.31,3.45,3.45,0,0,0-.13-.75h0a1.91,1.91,0,0,0,1.14-.87h-.56a4,4,0,0,0-.63-.58c-.21-.7-.44-1.41-.65-2.1a40.64,40.64,0,0,0,1.32-6,1.74,1.74,0,0,1,3.31-.47A10.64,10.64,0,0,1,78,21.94a16.32,16.32,0,0,1,0,7.3,2.29,2.29,0,0,1,1.24-.87c1.6-.34,2.6,1.75,2,4.75-.07.34-.15.65-.23.92v0a6.47,6.47,0,0,1-.36.93l9,5.12c0-6.15,0-12.16,0-18.14a5.08,5.08,0,0,1,.83.08,86,86,0,0,1,16.24,5,39.62,39.62,0,0,1,13.09,8.46c5.46,5.61,5.58,12,.28,17.78-.36.39-.71.79-1.11,1.24l2.69,2.82c1.09-1.3,2.06-2.43,3-3.59a19.57,19.57,0,0,0,3.14-7.07V42.47C127.38,41.57,127.14,40.66,126.81,39.78Z" transform="translate(0 0.25)"/></svg>