<?xml version="1.0" encoding="utf-8"?>
<!-- Generator: Adobe Illustrator 24.3.0, SVG Export Plug-In . SVG Version: 6.00 Build 0)  -->
<svg version="1.1" id="Calque_1" xmlns="http://www.w3.org/2000/svg" xmlns:xlink="http://www.w3.org/1999/xlink" x="0px" y="0px"
	 viewBox="0 0 146.4 146.4" style="enable-background:new 0 0 146.4 146.4;" xml:space="preserve">
<style type="text/css">
	.st0{fill:#FFFFFF;}
</style>
<path class="st0" d="M73.2,146.4C32.7,146.4,0,113.6,0,73.2c0-19.4,7.7-38,21.5-51.8C50-7.2,96.4-7.2,125,21.4s28.6,75,0,103.6l0,0
	C111.2,138.8,92.6,146.5,73.2,146.4z M73.2,1.4C33.5,1.4,1.4,33.6,1.4,73.3c0,19,7.6,37.3,21,50.7c28,28,73.5,28,101.6,0
	s28-73.5,0-101.6C110.5,8.9,92.2,1.4,73.2,1.4L73.2,1.4z"/>
</svg>
