<svg xmlns="http://www.w3.org/2000/svg" xmlns:xlink="http://www.w3.org/1999/xlink" viewBox="0 0 170.54 179.84"><defs><style>.cls-1{isolation:isolate;}.cls-2{fill:#191827;}.cls-2,.cls-3,.cls-4,.cls-5,.cls-6,.cls-7,.cls-8{fill-rule:evenodd;}.cls-3,.cls-7,.cls-8{mix-blend-mode:screen;}.cls-3{fill:url(#radial-gradient);}.cls-4{fill:url(#New_Gradient_Swatch_156);}.cls-5{fill:url(#Dégradé_sans_nom_4);}.cls-6{fill:url(#Dégradé_sans_nom_7);}.cls-7{fill:url(#radial-gradient-2);}.cls-8{fill:url(#New_Gradient_Swatch_154);}.cls-9{opacity:0.5;mix-blend-mode:soft-light;}.cls-10{fill:#b6b6b5;}.cls-11{fill:none;stroke:#b6b6b5;stroke-miterlimit:10;}</style><radialGradient id="radial-gradient" cx="265.79" cy="58.3" r="232.06" gradientTransform="translate(-432.43 0) scale(1.44 1)" gradientUnits="userSpaceOnUse"><stop offset="0.5" stop-color="#010101"/><stop offset="0.58" stop-color="#040506"/><stop offset="0.68" stop-color="#0b1016"/><stop offset="0.79" stop-color="#172230"/><stop offset="0.9" stop-color="#283b54"/><stop offset="1" stop-color="#395579"/></radialGradient><radialGradient id="New_Gradient_Swatch_156" cx="370.71" cy="19.95" r="147.9" gradientTransform="translate(-432.43 0) scale(1.44 1)" gradientUnits="userSpaceOnUse"><stop offset="0" stop-color="#464f5f"/><stop offset="1" stop-color="#252e37"/></radialGradient><linearGradient id="Dégradé_sans_nom_4" x1="89.61" y1="180.06" x2="89.61" y2="152.7" gradientTransform="translate(0 0)" gradientUnits="userSpaceOnUse"><stop offset="0" stop-color="#010101"/><stop offset="0.02" stop-color="#040408"/><stop offset="0.11" stop-color="#17162e"/><stop offset="0.21" stop-color="#26254f"/><stop offset="0.32" stop-color="#33326a"/><stop offset="0.44" stop-color="#3d3b7e"/><stop offset="0.58" stop-color="#44428d"/><stop offset="0.74" stop-color="#484695"/><stop offset="1" stop-color="#494798"/></linearGradient><linearGradient id="Dégradé_sans_nom_7" x1="305.76" y1="100.06" x2="422.61" y2="-16.79" gradientTransform="translate(-315.66 0)" gradientUnits="userSpaceOnUse"><stop offset="0" stop-color="#010101"/><stop offset="0.04" stop-color="#090a12"/><stop offset="0.13" stop-color="#1b1e38"/><stop offset="0.23" stop-color="#2b2f59"/><stop offset="0.34" stop-color="#383e74"/><stop offset="0.46" stop-color="#424888"/><stop offset="0.59" stop-color="#495097"/><stop offset="0.75" stop-color="#4d559f"/><stop offset="1" stop-color="#4e56a2"/></linearGradient><radialGradient id="radial-gradient-2" cx="287.46" cy="-7.91" r="97.89" gradientTransform="translate(-432.43 0) scale(1.44 1)" gradientUnits="userSpaceOnUse"><stop offset="0" stop-color="#395579"/><stop offset="1" stop-color="#010101"/></radialGradient><radialGradient id="New_Gradient_Swatch_154" cx="360.33" cy="91.28" r="141.91" gradientTransform="translate(-432.43 0) scale(1.44 1)" gradientUnits="userSpaceOnUse"><stop offset="0.5" stop-color="#010101"/><stop offset="1" stop-color="#395579"/></radialGradient></defs><g class="cls-1"><g id="Calque_1" data-name="Calque 1"><path class="cls-2" d="M103.63.31c-19.28,2.47-56.24,4.26-62.58,10C33.65,17,15.33,28,7.25,37.83-1.7,48.69-.92,129.18,3.73,138.61c6.65,13.5,20.57,26.5,34.42,35.71,9.86,6.55,114.74,13.29,127.15-15.18.6-1.37,8-82.61,4.78-103.35-1.77-11.5-15.48-33.85-21.91-41.56-3.37-4-35.7-15.06-44.54-13.92Z" transform="translate(-0.34 -0.22)"/><path class="cls-3" d="M156.68,26.47C121.1,43.88,86.53,64.1,77.16,97.55c-7.56,27,12.17,51.32,46,63.05,19.31,6.7,30.75,5.78,41.07.5a15.34,15.34,0,0,0,1-2c.6-1.37,8-82.61,4.78-103.35-1.15-7.51-7.41-19.65-13.4-29.32Z" transform="translate(-0.34 -0.22)"/><path class="cls-4" d="M164.26,161.1c-10.32,5.28-21.76,6.2-41.07-.5-33.86-11.73-53.59-36.08-46-63,9.37-33.45,43.94-53.67,79.52-71.08-.28-.46-.57-.92-.85-1.36-39.52,17.23-77.05,42.49-83.44,75.1-7.53,38.52,36.85,67.07,75.91,72.05,7.36-2.78,13-6.44,16-11.16Z" transform="translate(-0.34 -0.22)"/><path class="cls-5" d="M38.15,174.32c9.86,6.55,114.74,13.29,127.15-15.18.08-.21.32-2.15.65-5.38C146.54,178.84,41.6,172.35,31.4,166A141.11,141.11,0,0,1,13.27,152.7a123.5,123.5,0,0,0,24.88,21.62Z" transform="translate(-0.34 -0.22)"/><path class="cls-6" d="M41.05,10.31C33.65,17,15.33,28,7.25,37.83,1.3,45.06-.35,83.1.58,110.54c1.32-20,4.58-64.31,14-71.71C27,29,28.78,32.11,39.61,18.26c1.59-2,3.47-5.43,4.36-6.22A293.51,293.51,0,0,0,75.28,8C91,5,108,2,108,2c7,.44,14.5,2.19,21.59,3.9-10.07-3.37-21.32-6.18-26-5.57-19.28,2.47-56.24,4.26-62.58,10Z" transform="translate(-0.34 -0.22)"/><path class="cls-7" d="M9.59,80.43C8.44,72.73,7.92,53.35,16,42.57c3.27-4.37,16.28-8.67,29.48-26.28,2-2.69,63.06-11.72,66.09-11.88,5.66-.31,14.13,1.87-2.2,9.18-13,5.83-38.53,17.2-54.28,29.72-18.85,15-28.75,34-35.6,40.67-3.44,3.34-9.32.27-9.88-3.55Z" transform="translate(-0.34 -0.22)"/><path class="cls-8" d="M147,136.34c-5.39,4.65-10.13,9.78-15.91,13.58A131,131,0,0,1,96.89,166.4c-4.46,1.51-1.7,2.72-.62,2.83,16.34,1.58,54.06-2.94,65.29-14.77,3.37-3.56,3-17.63,2.29-21.7-.76-4.24-14.2,1.33-16.81,3.58Z" transform="translate(-0.34 -0.22)"/><g class="cls-9"><path class="cls-10" d="M85.61,146.67a56.53,56.53,0,1,1,40-16.56h0A56.15,56.15,0,0,1,85.61,146.67Zm0-112a55.43,55.43,0,1,0,39.2,16.23A55.07,55.07,0,0,0,85.61,34.71Z" transform="translate(-0.34 -0.22)"/></g><g class="cls-9"><path class="cls-10" d="M85.61,146.67a56.53,56.53,0,1,1,40-16.56h0A56.15,56.15,0,0,1,85.61,146.67Zm0-112a55.43,55.43,0,1,0,39.2,16.23A55.07,55.07,0,0,0,85.61,34.71Z" transform="translate(-0.34 -0.22)"/></g><g class="cls-9"><path class="cls-10" d="M85.61,146.67a56.53,56.53,0,1,1,40-16.56h0A56.15,56.15,0,0,1,85.61,146.67Zm0-112a55.43,55.43,0,1,0,39.2,16.23A55.07,55.07,0,0,0,85.61,34.71Z" transform="translate(-0.34 -0.22)"/></g><g class="cls-9"><path class="cls-10" d="M85.61,146.67a56.53,56.53,0,1,1,40-16.56h0A56.15,56.15,0,0,1,85.61,146.67Zm0-112a55.43,55.43,0,1,0,39.2,16.23A55.07,55.07,0,0,0,85.61,34.71Z" transform="translate(-0.34 -0.22)"/></g><g class="cls-9"><path class="cls-10" d="M85.61,146.67a56.53,56.53,0,1,1,40-16.56h0A56.15,56.15,0,0,1,85.61,146.67Zm0-112a55.43,55.43,0,1,0,39.2,16.23A55.07,55.07,0,0,0,85.61,34.71Z" transform="translate(-0.34 -0.22)"/></g><g class="cls-9"><path class="cls-10" d="M85.61,146.67a56.53,56.53,0,1,1,40-16.56h0A56.15,56.15,0,0,1,85.61,146.67Zm0-112a55.43,55.43,0,1,0,39.2,16.23A55.07,55.07,0,0,0,85.61,34.71Z" transform="translate(-0.34 -0.22)"/></g><g class="cls-9"><path class="cls-11" d="M85.61,146.67a56.53,56.53,0,1,1,40-16.56h0A56.15,56.15,0,0,1,85.61,146.67Zm0-112a55.43,55.43,0,1,0,39.2,16.23A55.07,55.07,0,0,0,85.61,34.71Z" transform="translate(-0.34 -0.22)"/></g></g></g></svg>