<svg id="Calque_1" data-name="Calque 1" xmlns="http://www.w3.org/2000/svg" viewBox="0 0 214.84 72.27"><defs><style>.cls-1{fill:#120d2b;}</style></defs><polygon class="cls-1" points="61.72 19.78 64.49 22.55 68.53 26.59 69.32 25.8 70.42 24.7 70.75 24.37 71.97 23.15 75.16 19.96 75.16 35.24 81.16 35.24 81.16 5.35 79.85 6.79 68.53 18.11 62.92 12.49 57.21 6.79 57.15 6.79 55.72 5.35 55.72 6.79 55.72 13.78 55.72 35.24 61.72 35.24 61.72 19.78"/><polygon class="cls-1" points="106.85 23.17 106.85 17.17 90.13 17.17 84.13 17.14 84.13 29.24 84.13 30.36 84.13 35.24 115.2 35.24 115.2 29.24 90.13 29.24 90.13 23.17 106.85 23.17"/><polygon class="cls-1" points="124.62 12.99 134.54 12.99 134.54 6.99 109.37 6.99 109.37 6.99 84.13 6.99 84.13 8.12 84.13 12.99 109.1 12.99 109.1 12.99 118.62 12.99 118.62 13 124.62 13 124.62 12.99"/><rect class="cls-1" x="117.97" y="15.38" width="6" height="19.86"/><polygon class="cls-1" points="58.83 38.73 58.83 38.67 28.82 38.67 28.82 38.73 28.82 40.01 28.82 45.8 58.83 45.8 58.83 38.73"/><polygon class="cls-1" points="101.01 57.91 120.9 57.91 120.9 50.78 101.01 50.78 93.88 50.73 93.88 65.13 93.88 66.47 93.88 72.27 123.9 72.27 123.9 65.13 101.01 65.13 101.01 57.91"/><polygon class="cls-1" points="126.45 72.22 133.59 72.22 133.59 57.35 126.45 50.22 126.45 72.22"/><path class="cls-1" d="M204.79,51.44h-9.65a3.06,3.06,0,0,1,0-6.11h11.17a2.75,2.75,0,0,1,1.85,2.6h7a9.7,9.7,0,0,0-8.56-9.65H193.93a10.21,10.21,0,0,0-7.63,5,9.81,9.81,0,0,0-.93,2.19,16.44,16.44,0,0,0-2.71-3.07,16.78,16.78,0,0,0-9.79-4.17l-.09,0-18.8,0h-7.09v.07h0v18l-18-18H75.64a17.24,17.24,0,0,0-12,4.83,16.68,16.68,0,0,0-4.42,7.21H36.25l-7.14,0V71.81h30V64.67H36.25V57.46H51l0,.06h7.65A16.47,16.47,0,0,0,63.59,67a17.25,17.25,0,0,0,12,4.84H90.32V57.52h0V50.39H66.77a10.13,10.13,0,0,1,7.39-5H90.27v-.06h35.54l8.08,8.08,4.89,4.88,8.46,8.46,5,5H154V45.36h18a12,12,0,0,1,1.48.18,9.57,9.57,0,0,1,3.92,1.78A9.69,9.69,0,0,1,181,53.15a9.47,9.47,0,0,1,.19,1.92,10.36,10.36,0,0,1-.2,2,9.75,9.75,0,0,1-8,7.6h-8V50.34h-7.13V71.81h15.72a16.87,16.87,0,0,0,14.62-14.26c.08-.53.12-1.07.15-1.61a10.19,10.19,0,0,0,6.82,2.64h9.65a3.05,3.05,0,1,1,0,6.1h-4.51a2.74,2.74,0,0,1-1.85-2.59h-7a9.58,9.58,0,0,0,.35,2.59,9.72,9.72,0,0,0,9.38,7.14h3.62a10.19,10.19,0,1,0,0-20.37ZM83.19,57.52v7.15h-9a10,10,0,0,1-8.3-7.15Z" transform="translate(-0.31 0.46)"/><polygon class="cls-1" points="146.59 35.24 153.67 35.24 153.67 28.15 153.67 1.71 153.67 0 146.93 6.75 138.47 15.2 133.59 20.09 126.45 27.22 126.45 28.17 126.45 31.47 126.45 34.68 126.45 35.24 128.53 35.24 146.54 17.23 146.54 35.24 146.59 35.24"/><polygon class="cls-1" points="7.14 39.12 0 39.12 0 72.27 26.74 72.27 26.74 65.13 7.14 65.13 7.14 39.12"/></svg>