<svg id="Calque_1" data-name="Calque 1" xmlns="http://www.w3.org/2000/svg" viewBox="0 0 106.15 106.15"><defs><style>.cls-1{fill:#fff;}</style></defs><polygon class="cls-1" points="76.59 26.95 76.59 41.73 65.59 53.08 76.59 64.43 76.59 79.2 51.07 53.08 76.59 26.95"/><polygon class="cls-1" points="49.05 26.95 49.05 41.73 38.05 53.08 49.05 64.43 49.05 79.2 23.54 53.08 49.05 26.95"/><path class="cls-1" d="M.42,53.5A53.08,53.08,0,1,1,53.5,106.58,53.14,53.14,0,0,1,.42,53.5Zm7,0a46,46,0,1,0,46-46A46.09,46.09,0,0,0,7.46,53.5Z" transform="translate(-0.42 -0.42)"/></svg>