<svg id="Calque_1" data-name="Calque 1" xmlns="http://www.w3.org/2000/svg" viewBox="0 0 66.82 88.11"><defs><style>.cls-1{fill:#fff;}</style></defs><path class="cls-1" d="M65.9,32.47c-.25,0-6,0-6.39,0h-.27c0-1.4.23-8.5,0-10.85C58.44,10.32,48.57.82,36.84,0c-.74,0-1.48-.08-2.19-.08A24.85,24.85,0,0,0,17.94,6,23.57,23.57,0,0,0,9.86,21.79c-.14,2.09.05,9.23,0,10.68H3.41a2.2,2.2,0,0,0-2.24,2.16V85.87A2.2,2.2,0,0,0,3.41,88H65.74A2.21,2.21,0,0,0,68,85.87V34.63A2.21,2.21,0,0,0,65.9,32.47ZM42.7,77.9H26.81l2.42-19.7a8.94,8.94,0,0,1-3.86-7.31,9.39,9.39,0,0,1,18.77,0,9,9,0,0,1-3.87,7.31Zm6.14-45.61v.18H20.32c0-.37,0-.72,0-1.08-.09-6-.15-10.74,2-14.29a14,14,0,0,1,11.76-7h.52a14,14,0,0,1,12,6.62C49,20.57,49,25.49,48.84,32.29Z" transform="translate(-1.17 0.08)"/></svg>