<svg id="Calque_1" data-name="Calque 1" xmlns="http://www.w3.org/2000/svg" viewBox="0 0 311.24 235.45"><defs><style>.cls-1{fill:#fff;}</style></defs><polygon class="cls-1" points="223.5 0.12 223.06 0.55 222.63 0.12 155.37 67.26 107.72 19.52 107.82 19.42 88.43 0 88.33 0.1 88.23 0 68.81 19.39 68.91 19.49 0 88.27 19.39 107.7 88.29 38.91 135.94 86.65 155.33 106.07 174.76 86.68 223.03 38.49 291.81 107.4 311.24 88.01 223.5 0.12"/><polygon class="cls-1" points="223.44 62.88 223.01 63.32 222.57 62.88 190.88 94.51 171.46 113.9 155.31 130.02 139.2 113.87 119.81 94.45 107.66 82.28 107.76 82.19 88.37 62.76 88.27 62.86 88.17 62.76 68.75 82.15 68.85 82.25 88.24 101.67 100.38 113.84 119.77 133.26 135.89 149.41 155.28 168.83 174.7 149.44 190.85 133.32 210.27 113.94 222.97 101.25 236.86 115.17 224.16 127.85 204.74 147.24 188.59 163.36 169.17 182.75 155.26 196.63 141.37 182.72 121.98 163.3 105.86 147.15 86.47 127.73 74.33 115.56 54.94 96.14 35.51 115.53 54.9 134.95 67.05 147.12 86.44 166.54 102.56 182.69 121.94 202.11 135.83 216.02 155.22 235.45 174.65 216.06 188.56 202.17 207.98 182.78 224.13 166.66 243.55 147.27 256.25 134.59 275.68 115.2 256.29 95.78 223.44 62.88"/></svg>