<svg id="Calque_1" data-name="Calque 1" xmlns="http://www.w3.org/2000/svg" viewBox="0 0 69.03 97.38"><defs><style>.cls-1{fill:#fff;}</style></defs><path class="cls-1" d="M66.88,40H61.45c.95-1.32,1.8-2.53,2.24-3.28a24,24,0,0,0-6.11-31q-.9-.69-1.83-1.29A26.14,26.14,0,0,0,21.39,9.16C20,10.84,16,16.92,15,18.26l8.89,5.83.6-.87c3.55-5.17,6.36-9.26,10.32-11.1a14.88,14.88,0,0,1,14.27.61l.45.28A13.66,13.66,0,0,1,55.82,25.4c-.24,4.67-3.28,8.82-7.48,14.57h-46A2.28,2.28,0,0,0,0,42.22V95.15a2.28,2.28,0,0,0,2.32,2.23H66.71A2.28,2.28,0,0,0,69,95.15V42.22A2.27,2.27,0,0,0,66.88,40ZM42.73,86.91H26.31l2.5-20.35a9.21,9.21,0,0,1-4-7.55,9.52,9.52,0,0,1,9.7-9.33A9.52,9.52,0,0,1,44.21,59a9.21,9.21,0,0,1-4,7.55Z"/></svg>