<?xml version="1.0" encoding="utf-8"?>
<!-- Generator: Adobe Illustrator 24.3.0, SVG Export Plug-In . SVG Version: 6.00 Build 0)  -->
<svg version="1.1" id="Calque_1" xmlns="http://www.w3.org/2000/svg" xmlns:xlink="http://www.w3.org/1999/xlink" x="0px" y="0px"
	 viewBox="0 0 167.4 172.6" style="enable-background:new 0 0 167.4 172.6;" xml:space="preserve">
<style type="text/css">
	.st0{fill:#FFFFFF;}
</style>
<path class="st0" d="M55.9,90.2c-5.7,0-11.4-1-16.8-2.8l-0.6-0.2l45.2-65.7L105.4,53l-0.1,0.2C98.8,75.1,78.7,90.1,55.9,90.2z
	 M39.9,86.7c5.2,1.7,10.6,2.6,16,2.6c22.4-0.1,42-14.8,48.5-36.2l-20.7-30L39.9,86.7z"/>
<path class="st0" d="M167.4,143.1l-83.8-0.6L0,143.1l33.7-48.9l0.4,0.3c22.8,20.3,57.7,18.2,78-4.6c3.6-4,6.5-8.5,8.8-13.4l0.3-0.7
	L167.4,143.1z M83.7,141.6l82,0.6l-44.4-64.5c-13.5,27.9-47,39.6-74.9,26.2c-4.5-2.2-8.7-5-12.5-8.3L1.7,142.2L83.7,141.6z"/>
<path class="st0" d="M104.3,142.4c-16.8,1.6-18.1,3.4-19.1,30.2c0,0.1-0.1,0.1-0.1,0.1c0,0-0.1,0-0.1-0.1
	c-1-26.8-2.3-28.6-19.1-30.2c0,0-0.1,0-0.1-0.1c0,0,0-0.1,0.1-0.1c16.8-1.6,18.1-3.4,19.1-30.2c0-0.1,0.1-0.1,0.1-0.1
	c0,0,0.1,0,0.1,0.1c1,26.8,2.3,28.6,19.1,30.2C104.4,142.2,104.4,142.2,104.3,142.4C104.4,142.3,104.4,142.4,104.3,142.4z"/>
<path class="st0" d="M115.3,119c-9.6,0.9-10.3,1.9-10.8,17.2c0,0,0,0.1,0,0.1c0,0-0.1,0-0.1,0c0,0,0,0,0,0
	c-0.6-15.2-1.3-16.2-10.8-17.2c-0.1,0-0.1-0.1,0-0.1c9.6-0.9,10.3-1.9,10.8-17.2c0,0,0,0,0.1,0c0,0,0,0,0,0
	C105.1,117,105.8,118,115.3,119C115.4,118.9,115.4,119,115.3,119z"/>
<path class="st0" d="M73.4,119.5c-5.8,0.6-6.3,1.2-6.6,10.5 M66.7,130c-0.3-9.3-0.8-9.9-6.6-10.5v-0.1c5.8-0.6,6.3-1.2,6.6-10.5
	 M66.8,109c0.3,9.3,0.8,9.9,6.6,10.5c0,0,0,0.1,0,0.1L66.8,109z"/>
<path class="st0" d="M70.7,109.4c-23,0.1-43.7-13.9-52.1-35.3L17.7,72l1.6,1.7c9.5,10,22.7,15.7,36.6,15.6
	c27.9,0,50.6-22.6,50.6-50.6c0-14.1-5.9-27.6-16.2-37.1L88.6,0l2.2,0.8c29,11.1,43.5,43.5,32.4,72.5C114.9,95.1,94,109.4,70.7,109.4
	L70.7,109.4z M20.3,76c12.5,27.8,45.3,40.2,73.1,27.7C113.2,94.7,126,75,126,53.3c-0.1-22-13.2-41.9-33.4-50.7
	c20,20.3,19.7,52.9-0.5,72.8c-9.6,9.5-22.6,14.8-36.1,14.8C42.6,90.3,29.9,85.2,20.3,76z"/>
</svg>
