<svg xmlns="http://www.w3.org/2000/svg" xmlns:xlink="http://www.w3.org/1999/xlink" viewBox="0 0 170.54 179.84"><defs><style>.cls-1{isolation:isolate;}.cls-2{fill:#191827;}.cls-2,.cls-3,.cls-4,.cls-5,.cls-6,.cls-7,.cls-8{fill-rule:evenodd;}.cls-3,.cls-7,.cls-8{mix-blend-mode:screen;}.cls-3{fill:url(#radial-gradient);}.cls-4{fill:url(#New_Gradient_Swatch_156);}.cls-5{fill:url(#Dégradé_sans_nom_4);}.cls-6{fill:url(#Dégradé_sans_nom_7);}.cls-7{fill:url(#radial-gradient-2);}.cls-8{fill:url(#New_Gradient_Swatch_154);}.cls-9{mix-blend-mode:soft-light;fill:url(#linear-gradient);}</style><radialGradient id="radial-gradient" cx="265.79" cy="58.3" r="232.06" gradientTransform="translate(-432.43 0) scale(1.44 1)" gradientUnits="userSpaceOnUse"><stop offset="0.5" stop-color="#010101"/><stop offset="0.58" stop-color="#040506"/><stop offset="0.68" stop-color="#0b1016"/><stop offset="0.79" stop-color="#172230"/><stop offset="0.9" stop-color="#283b54"/><stop offset="1" stop-color="#395579"/></radialGradient><radialGradient id="New_Gradient_Swatch_156" cx="370.71" cy="19.95" r="147.9" gradientTransform="translate(-432.43 0) scale(1.44 1)" gradientUnits="userSpaceOnUse"><stop offset="0" stop-color="#464f5f"/><stop offset="1" stop-color="#252e37"/></radialGradient><linearGradient id="Dégradé_sans_nom_4" x1="89.61" y1="180.06" x2="89.61" y2="152.7" gradientTransform="translate(0 0)" gradientUnits="userSpaceOnUse"><stop offset="0" stop-color="#010101"/><stop offset="0.02" stop-color="#040408"/><stop offset="0.11" stop-color="#17162e"/><stop offset="0.21" stop-color="#26254f"/><stop offset="0.32" stop-color="#33326a"/><stop offset="0.44" stop-color="#3d3b7e"/><stop offset="0.58" stop-color="#44428d"/><stop offset="0.74" stop-color="#484695"/><stop offset="1" stop-color="#494798"/></linearGradient><linearGradient id="Dégradé_sans_nom_7" x1="305.76" y1="100.06" x2="422.61" y2="-16.79" gradientTransform="translate(-315.66 0)" gradientUnits="userSpaceOnUse"><stop offset="0" stop-color="#010101"/><stop offset="0.04" stop-color="#090a12"/><stop offset="0.13" stop-color="#1b1e38"/><stop offset="0.23" stop-color="#2b2f59"/><stop offset="0.34" stop-color="#383e74"/><stop offset="0.46" stop-color="#424888"/><stop offset="0.59" stop-color="#495097"/><stop offset="0.75" stop-color="#4d559f"/><stop offset="1" stop-color="#4e56a2"/></linearGradient><radialGradient id="radial-gradient-2" cx="287.46" cy="-7.91" r="97.89" gradientTransform="translate(-432.43 0) scale(1.44 1)" gradientUnits="userSpaceOnUse"><stop offset="0" stop-color="#395579"/><stop offset="1" stop-color="#010101"/></radialGradient><radialGradient id="New_Gradient_Swatch_154" cx="360.33" cy="91.28" r="141.91" gradientTransform="translate(-432.43 0) scale(1.44 1)" gradientUnits="userSpaceOnUse"><stop offset="0.5" stop-color="#010101"/><stop offset="1" stop-color="#395579"/></radialGradient><linearGradient id="linear-gradient" x1="29.61" y1="86.66" x2="141.61" y2="86.66" gradientUnits="userSpaceOnUse"><stop offset="0" stop-color="#ebeaf6"/><stop offset="1" stop-color="#a0b4c3"/></linearGradient></defs><g class="cls-1"><g id="Calque_1" data-name="Calque 1"><path class="cls-2" d="M103.63.31c-19.28,2.47-56.24,4.26-62.58,10C33.65,17,15.33,28,7.25,37.83-1.7,48.69-.92,129.18,3.73,138.61c6.65,13.5,20.57,26.5,34.42,35.71,9.86,6.55,114.74,13.29,127.15-15.18.6-1.37,8-82.61,4.78-103.35-1.77-11.5-15.48-33.85-21.91-41.56-3.37-4-35.7-15.06-44.54-13.92Z" transform="translate(-0.34 -0.22)"/><path class="cls-3" d="M156.68,26.47C121.1,43.88,86.53,64.1,77.16,97.55c-7.56,27,12.17,51.32,46,63.05,19.31,6.7,30.75,5.78,41.07.5a15.34,15.34,0,0,0,1-2c.6-1.37,8-82.61,4.78-103.35-1.15-7.51-7.41-19.65-13.4-29.32Z" transform="translate(-0.34 -0.22)"/><path class="cls-4" d="M164.26,161.1c-10.32,5.28-21.76,6.2-41.07-.5-33.86-11.73-53.59-36.08-46-63,9.37-33.45,43.94-53.67,79.52-71.08-.28-.46-.57-.92-.85-1.36-39.52,17.23-77.05,42.49-83.44,75.1-7.53,38.52,36.85,67.07,75.91,72.05,7.36-2.78,13-6.44,16-11.16Z" transform="translate(-0.34 -0.22)"/><path class="cls-5" d="M38.15,174.32c9.86,6.55,114.74,13.29,127.15-15.18.08-.21.32-2.15.65-5.38C146.54,178.84,41.6,172.35,31.4,166A141.11,141.11,0,0,1,13.27,152.7a123.5,123.5,0,0,0,24.88,21.62Z" transform="translate(-0.34 -0.22)"/><path class="cls-6" d="M41.05,10.31C33.65,17,15.33,28,7.25,37.83,1.3,45.06-.35,83.1.58,110.54c1.32-20,4.58-64.31,14-71.71C27,29,28.78,32.11,39.61,18.26c1.59-2,3.47-5.43,4.36-6.22A293.51,293.51,0,0,0,75.28,8C91,5,108,2,108,2c7,.44,14.5,2.19,21.59,3.9-10.07-3.37-21.32-6.18-26-5.57-19.28,2.47-56.24,4.26-62.58,10Z" transform="translate(-0.34 -0.22)"/><path class="cls-7" d="M9.59,80.43C8.44,72.73,7.92,53.35,16,42.57c3.27-4.37,16.28-8.67,29.48-26.28,2-2.69,63.06-11.72,66.09-11.88,5.66-.31,14.13,1.87-2.2,9.18-13,5.83-38.53,17.2-54.28,29.72-18.85,15-28.75,34-35.6,40.67-3.44,3.34-9.32.27-9.88-3.55Z" transform="translate(-0.34 -0.22)"/><path class="cls-8" d="M147,136.34c-5.39,4.65-10.13,9.78-15.91,13.58A131,131,0,0,1,96.89,166.4c-4.46,1.51-1.7,2.72-.62,2.83,16.34,1.58,54.06-2.94,65.29-14.77,3.37-3.56,3-17.63,2.29-21.7-.76-4.24-14.2,1.33-16.81,3.58Z" transform="translate(-0.34 -0.22)"/><path class="cls-9" d="M128.09,109.82a39.65,39.65,0,0,0,7.84-23.42h5.68V84.56h-5.7a38.48,38.48,0,0,0-.39-4.33l3.62-14.44.12-.49-8,2A40.32,40.32,0,0,0,123,56.69a4.52,4.52,0,1,0-4.78-4.51,4.26,4.26,0,0,0,.08.8,39.68,39.68,0,0,0-11.2-5.22L109,29.43l0-.55L90.79,37.64V34.45a4.52,4.52,0,1,0-1.84,0v4L69.47,47.88l-10.9,5-4-4a4.52,4.52,0,1,0-3.69,1.92,4.47,4.47,0,0,0,2.34-.67l3.53,3.54L29.61,66.21,56.2,84c0,.7-.05,1.4-.05,2.1A39.75,39.75,0,0,0,64.09,110L53.4,120.65a4.6,4.6,0,0,0-2.48-.74,4.54,4.54,0,1,0,3.78,2l10.54-10.54A39.89,39.89,0,0,0,89,125.34v10.91a4.54,4.54,0,1,0,1.84.05V125.63A41.33,41.33,0,0,0,96,126l1.15,0,21.37,21.84Zm-5.36-60.34a2.7,2.7,0,1,1-2.7,2.7A2.7,2.7,0,0,1,122.73,49.48ZM87.06,30.05a2.7,2.7,0,1,1,2.7,2.69A2.69,2.69,0,0,1,87.06,30.05ZM48.22,46.31A2.7,2.7,0,1,1,50.92,49,2.7,2.7,0,0,1,48.22,46.31Zm2.7,80.82a2.7,2.7,0,1,1,2.69-2.69A2.69,2.69,0,0,1,50.92,127.13ZM92.45,140.7a2.7,2.7,0,1,1-2.69-2.7A2.7,2.7,0,0,1,92.45,140.7Zm36-32.14L134,86.41h1.5A39.22,39.22,0,0,1,128.4,108.56Zm-71.69-25a39.25,39.25,0,0,1,8.23-21.69l17.32,17.4L60.42,84.68H58.33Zm45.95,1H97.87L95.68,81l5.74-5.75,2.27-.55Zm1.66-10.1L131,68A39.29,39.29,0,0,1,135,79.87l-1.18,4.7-30.51,0Zm.79,23.74a2.7,2.7,0,1,1-2.69,2.69A2.7,2.7,0,0,1,105.11,98.26Zm-4.28,4.12-1,10-9-6V99.17l4.24-7,6.22,6.24,0,.31a4.31,4.31,0,0,0-.38,3.69ZM93.4,77.2,98,76.08,94.7,79.36Zm-9.54,3.72-2.24,3.73L63,84.67l19.77-4.85Zm-2.79,5.56,2.44,4.06-6.57,6.58L61.07,86.51Zm3.42,5.68L89,99.57v5.58l-10.46-7ZM96,90.51l2.45-4.05h4l-1,9.57Zm6.26-16.11,1.62-1.63L103.76,74Zm-3.45.84-5.74,1.41-2.28-3.79V47A39.56,39.56,0,0,1,96,46.67a39.12,39.12,0,0,1,10.39,1.4l-2.25,21.8ZM89,72.47l-3.67,6.1-.94.23L66.11,60.48A39.42,39.42,0,0,1,89,47.32Zm-29,14,16.52,11L73.09,101,58.46,86.52ZM78.05,98.6,89,105.89v10.77l-.64-.66L74.39,102.26Zm12.74,8.52,9.52,6.36,1-10a4.54,4.54,0,1,0,1.29-6.28l-.58-.59,1-10.13,30.24,0-5.89,23.48a39.4,39.4,0,0,1-29.87,15.58l-6.78-6.93Zm44.63-22.55h-1l.77-3.06C135.31,82.52,135.39,83.54,135.42,84.57Zm3-18.43-3.16,12.6a39.51,39.51,0,0,0-3.75-10.9Zm-7.67,1.26-26.35,6.47.18-1.79,16-16a4.42,4.42,0,0,0,1.69.54A39.44,39.44,0,0,1,130.74,67.4ZM118.48,53.7a4.64,4.64,0,0,0,.66,1.22L104.87,69.19,107,48.24A39.36,39.36,0,0,1,118.48,53.7ZM108.3,29.91l-1.82,17.68a39.23,39.23,0,0,0-15.69-1V38.32ZM69.73,48.43,89,39.2v7.64a39.88,39.88,0,0,0-23.17,13.3L59,53.36ZM30.86,66.31,57.25,54.17l7.36,7.4a39.57,39.57,0,0,0-8.35,21.72ZM56.62,86.09c0-.6,0-1.19.05-1.79l.8.54v.56l-.81.2.81.8v.12h.12L72.65,101.4l-8.21,8.22A39.19,39.19,0,0,1,56.62,86.09Zm9,25L74,102.69l13.91,13.75,1.08,1.1v7.32A39.43,39.43,0,0,1,65.58,111.07ZM96,125.51a39.56,39.56,0,0,1-5.25-.36v-5.73l5.94,6.07Zm2,.42A39.85,39.85,0,0,0,127.16,111l-8.92,35.57Z" transform="translate(-0.34 -0.22)"/><path class="cls-9" d="M128.09,109.82a39.65,39.65,0,0,0,7.84-23.42h5.68V84.56h-5.7a38.48,38.48,0,0,0-.39-4.33l3.62-14.44.12-.49-8,2A40.32,40.32,0,0,0,123,56.69a4.52,4.52,0,1,0-4.78-4.51,4.26,4.26,0,0,0,.08.8,39.68,39.68,0,0,0-11.2-5.22L109,29.43l0-.55L90.79,37.64V34.45a4.52,4.52,0,1,0-1.84,0v4L69.47,47.88l-10.9,5-4-4a4.52,4.52,0,1,0-3.69,1.92,4.47,4.47,0,0,0,2.34-.67l3.53,3.54L29.61,66.21,56.2,84c0,.7-.05,1.4-.05,2.1A39.75,39.75,0,0,0,64.09,110L53.4,120.65a4.6,4.6,0,0,0-2.48-.74,4.54,4.54,0,1,0,3.78,2l10.54-10.54A39.89,39.89,0,0,0,89,125.34v10.91a4.54,4.54,0,1,0,1.84.05V125.63A41.33,41.33,0,0,0,96,126l1.15,0,21.37,21.84Zm-5.36-60.34a2.7,2.7,0,1,1-2.7,2.7A2.7,2.7,0,0,1,122.73,49.48ZM87.06,30.05a2.7,2.7,0,1,1,2.7,2.69A2.69,2.69,0,0,1,87.06,30.05ZM48.22,46.31A2.7,2.7,0,1,1,50.92,49,2.7,2.7,0,0,1,48.22,46.31Zm2.7,80.82a2.7,2.7,0,1,1,2.69-2.69A2.69,2.69,0,0,1,50.92,127.13ZM92.45,140.7a2.7,2.7,0,1,1-2.69-2.7A2.7,2.7,0,0,1,92.45,140.7Zm36-32.14L134,86.41h1.5A39.22,39.22,0,0,1,128.4,108.56Zm-71.69-25a39.25,39.25,0,0,1,8.23-21.69l17.32,17.4L60.42,84.68H58.33Zm45.95,1H97.87L95.68,81l5.74-5.75,2.27-.55Zm1.66-10.1L131,68A39.29,39.29,0,0,1,135,79.87l-1.18,4.7-30.51,0Zm.79,23.74a2.7,2.7,0,1,1-2.69,2.69A2.7,2.7,0,0,1,105.11,98.26Zm-4.28,4.12-1,10-9-6V99.17l4.24-7,6.22,6.24,0,.31a4.31,4.31,0,0,0-.38,3.69ZM93.4,77.2,98,76.08,94.7,79.36Zm-9.54,3.72-2.24,3.73L63,84.67l19.77-4.85Zm-2.79,5.56,2.44,4.06-6.57,6.58L61.07,86.51Zm3.42,5.68L89,99.57v5.58l-10.46-7ZM96,90.51l2.45-4.05h4l-1,9.57Zm6.26-16.11,1.62-1.63L103.76,74Zm-3.45.84-5.74,1.41-2.28-3.79V47A39.56,39.56,0,0,1,96,46.67a39.12,39.12,0,0,1,10.39,1.4l-2.25,21.8ZM89,72.47l-3.67,6.1-.94.23L66.11,60.48A39.42,39.42,0,0,1,89,47.32Zm-29,14,16.52,11L73.09,101,58.46,86.52ZM78.05,98.6,89,105.89v10.77l-.64-.66L74.39,102.26Zm12.74,8.52,9.52,6.36,1-10a4.54,4.54,0,1,0,1.29-6.28l-.58-.59,1-10.13,30.24,0-5.89,23.48a39.4,39.4,0,0,1-29.87,15.58l-6.78-6.93Zm44.63-22.55h-1l.77-3.06C135.31,82.52,135.39,83.54,135.42,84.57Zm3-18.43-3.16,12.6a39.51,39.51,0,0,0-3.75-10.9Zm-7.67,1.26-26.35,6.47.18-1.79,16-16a4.42,4.42,0,0,0,1.69.54A39.44,39.44,0,0,1,130.74,67.4ZM118.48,53.7a4.64,4.64,0,0,0,.66,1.22L104.87,69.19,107,48.24A39.36,39.36,0,0,1,118.48,53.7ZM108.3,29.91l-1.82,17.68a39.23,39.23,0,0,0-15.69-1V38.32ZM69.73,48.43,89,39.2v7.64a39.88,39.88,0,0,0-23.17,13.3L59,53.36ZM30.86,66.31,57.25,54.17l7.36,7.4a39.57,39.57,0,0,0-8.35,21.72ZM56.62,86.09c0-.6,0-1.19.05-1.79l.8.54v.56l-.81.2.81.8v.12h.12L72.65,101.4l-8.21,8.22A39.19,39.19,0,0,1,56.62,86.09Zm9,25L74,102.69l13.91,13.75,1.08,1.1v7.32A39.43,39.43,0,0,1,65.58,111.07ZM96,125.51a39.56,39.56,0,0,1-5.25-.36v-5.73l5.94,6.07Zm2,.42A39.85,39.85,0,0,0,127.16,111l-8.92,35.57Z" transform="translate(-0.34 -0.22)"/><path class="cls-9" d="M128.09,109.82a39.65,39.65,0,0,0,7.84-23.42h5.68V84.56h-5.7a38.48,38.48,0,0,0-.39-4.33l3.62-14.44.12-.49-8,2A40.32,40.32,0,0,0,123,56.69a4.52,4.52,0,1,0-4.78-4.51,4.26,4.26,0,0,0,.08.8,39.68,39.68,0,0,0-11.2-5.22L109,29.43l0-.55L90.79,37.64V34.45a4.52,4.52,0,1,0-1.84,0v4L69.47,47.88l-10.9,5-4-4a4.52,4.52,0,1,0-3.69,1.92,4.47,4.47,0,0,0,2.34-.67l3.53,3.54L29.61,66.21,56.2,84c0,.7-.05,1.4-.05,2.1A39.75,39.75,0,0,0,64.09,110L53.4,120.65a4.6,4.6,0,0,0-2.48-.74,4.54,4.54,0,1,0,3.78,2l10.54-10.54A39.89,39.89,0,0,0,89,125.34v10.91a4.54,4.54,0,1,0,1.84.05V125.63A41.33,41.33,0,0,0,96,126l1.15,0,21.37,21.84Zm-5.36-60.34a2.7,2.7,0,1,1-2.7,2.7A2.7,2.7,0,0,1,122.73,49.48ZM87.06,30.05a2.7,2.7,0,1,1,2.7,2.69A2.69,2.69,0,0,1,87.06,30.05ZM48.22,46.31A2.7,2.7,0,1,1,50.92,49,2.7,2.7,0,0,1,48.22,46.31Zm2.7,80.82a2.7,2.7,0,1,1,2.69-2.69A2.69,2.69,0,0,1,50.92,127.13ZM92.45,140.7a2.7,2.7,0,1,1-2.69-2.7A2.7,2.7,0,0,1,92.45,140.7Zm36-32.14L134,86.41h1.5A39.22,39.22,0,0,1,128.4,108.56Zm-71.69-25a39.25,39.25,0,0,1,8.23-21.69l17.32,17.4L60.42,84.68H58.33Zm45.95,1H97.87L95.68,81l5.74-5.75,2.27-.55Zm1.66-10.1L131,68A39.29,39.29,0,0,1,135,79.87l-1.18,4.7-30.51,0Zm.79,23.74a2.7,2.7,0,1,1-2.69,2.69A2.7,2.7,0,0,1,105.11,98.26Zm-4.28,4.12-1,10-9-6V99.17l4.24-7,6.22,6.24,0,.31a4.31,4.31,0,0,0-.38,3.69ZM93.4,77.2,98,76.08,94.7,79.36Zm-9.54,3.72-2.24,3.73L63,84.67l19.77-4.85Zm-2.79,5.56,2.44,4.06-6.57,6.58L61.07,86.51Zm3.42,5.68L89,99.57v5.58l-10.46-7ZM96,90.51l2.45-4.05h4l-1,9.57Zm6.26-16.11,1.62-1.63L103.76,74Zm-3.45.84-5.74,1.41-2.28-3.79V47A39.56,39.56,0,0,1,96,46.67a39.12,39.12,0,0,1,10.39,1.4l-2.25,21.8ZM89,72.47l-3.67,6.1-.94.23L66.11,60.48A39.42,39.42,0,0,1,89,47.32Zm-29,14,16.52,11L73.09,101,58.46,86.52ZM78.05,98.6,89,105.89v10.77l-.64-.66L74.39,102.26Zm12.74,8.52,9.52,6.36,1-10a4.54,4.54,0,1,0,1.29-6.28l-.58-.59,1-10.13,30.24,0-5.89,23.48a39.4,39.4,0,0,1-29.87,15.58l-6.78-6.93Zm44.63-22.55h-1l.77-3.06C135.31,82.52,135.39,83.54,135.42,84.57Zm3-18.43-3.16,12.6a39.51,39.51,0,0,0-3.75-10.9Zm-7.67,1.26-26.35,6.47.18-1.79,16-16a4.42,4.42,0,0,0,1.69.54A39.44,39.44,0,0,1,130.74,67.4ZM118.48,53.7a4.64,4.64,0,0,0,.66,1.22L104.87,69.19,107,48.24A39.36,39.36,0,0,1,118.48,53.7ZM108.3,29.91l-1.82,17.68a39.23,39.23,0,0,0-15.69-1V38.32ZM69.73,48.43,89,39.2v7.64a39.88,39.88,0,0,0-23.17,13.3L59,53.36ZM30.86,66.31,57.25,54.17l7.36,7.4a39.57,39.57,0,0,0-8.35,21.72ZM56.62,86.09c0-.6,0-1.19.05-1.79l.8.54v.56l-.81.2.81.8v.12h.12L72.65,101.4l-8.21,8.22A39.19,39.19,0,0,1,56.62,86.09Zm9,25L74,102.69l13.91,13.75,1.08,1.1v7.32A39.43,39.43,0,0,1,65.58,111.07ZM96,125.51a39.56,39.56,0,0,1-5.25-.36v-5.73l5.94,6.07Zm2,.42A39.85,39.85,0,0,0,127.16,111l-8.92,35.57Z" transform="translate(-0.34 -0.22)"/></g></g></svg>