<?xml version="1.0" encoding="utf-8"?>
<!-- Generator: Adobe Illustrator 24.3.0, SVG Export Plug-In . SVG Version: 6.00 Build 0)  -->
<svg version="1.1" id="Calque_1" xmlns="http://www.w3.org/2000/svg" xmlns:xlink="http://www.w3.org/1999/xlink" x="0px" y="0px"
	 viewBox="0 0 157.1 167.2" style="enable-background:new 0 0 157.1 167.2;" xml:space="preserve">
<style type="text/css">
	.st0{fill:#FFFFFF;}
</style>
<path class="st0" d="M101.2,21c0,15.8,12.8,28.7,28.7,28.7c7.8,0,15.3-3.2,20.7-8.8c-6.4,16-24.6,23.9-40.6,17.5
	c-16-6.4-23.9-24.6-17.5-40.6c3.2-8.1,9.7-14.5,17.9-17.6C104.5,5.4,101.2,13,101.2,21z"/>
<path class="st0" d="M78.6,143.5c-28.1,0-50.8-22.8-50.8-50.8s22.8-50.8,50.8-50.8s50.8,22.8,50.8,50.8l0,0
	C129.4,120.8,106.6,143.5,78.6,143.5z M78.6,43c-27.5,0-49.8,22.3-49.8,49.7c0,27.5,22.3,49.8,49.7,49.8s49.8-22.3,49.8-49.7
	c0,0,0,0,0-0.1C128.3,65.3,106,43,78.6,43z"/>
<path class="st0" d="M157.1,149l-78.6-0.7L0,149L78.6,18.5L157.1,149z M78.6,147.2l76.6,0.6L78.6,20.6L2,147.8L78.6,147.2z"/>
<path class="st0" d="M157.1,167.2l-78.6-0.7L0,167.2L78.6,36.8L157.1,167.2z M78.6,165.5l76.6,0.6L78.6,38.9L2,166.1L78.6,165.5z"/>
<polygon class="st0" points="58.6,102.1 64.6,92.1 70.7,102.1 64.6,102.1 "/>
<polygon class="st0" points="86.5,102.1 92.5,92.1 98.5,102.1 92.5,102.1 "/>
<polygon class="st0" points="70.8,94.6 78.7,81.6 86.5,94.6 78.7,94.5 "/>
</svg>
